<?xml version="1.0" encoding="utf-8"?>
<!-- Generator: Adobe Illustrator 16.0.0, SVG Export Plug-In . SVG Version: 6.00 Build 0)  -->
<!DOCTYPE svg PUBLIC "-//W3C//DTD SVG 1.1//EN" "http://www.w3.org/Graphics/SVG/1.1/DTD/svg11.dtd">
<svg version="1.1" id="Layer_1" xmlns="http://www.w3.org/2000/svg" xmlns:xlink="http://www.w3.org/1999/xlink" x="0px" y="0px"
	 width="64px" height="64px" viewBox="0 0 64 64" enable-background="new 0 0 64 64" xml:space="preserve">
<g>
	<circle fill="#F7F0F2" cx="32" cy="32" r="32"/>
	<g>
		<g>
			<g>
				<path fill="#EB354E" d="M22.081,11.999c-0.432,0-0.781,0.351-0.781,0.781c0,0.432,0.349,0.782,0.781,0.782
					c4.414,0,8.004,3.684,8.004,8.212c0,0.432,0.35,0.781,0.781,0.781c0.432,0,0.781-0.351,0.781-0.781
					C31.647,16.384,27.355,11.999,22.081,11.999z"/>
			</g>
		</g>
		<g>
			<g>
				<path fill="#EB354E" d="M22.078,15.707c-0.432,0-0.781,0.35-0.781,0.781c0,0.432,0.349,0.781,0.781,0.781
					c2.417,0,4.382,2.021,4.382,4.505c0,0.431,0.351,0.782,0.781,0.782c0.432,0,0.781-0.351,0.781-0.782
					C28.023,18.428,25.356,15.707,22.078,15.707z"/>
			</g>
		</g>
		<g>
			<g>
				<path fill="#EB354E" d="M22.093,19.121c-0.431,0-0.781,0.35-0.781,0.782c0,0.431,0.351,0.781,0.781,0.781
					c0.565,0,1.024,0.479,1.024,1.066c0,0.432,0.349,0.781,0.781,0.781c0.431,0,0.781-0.35,0.781-0.781
					C24.68,20.3,23.52,19.121,22.093,19.121z"/>
			</g>
		</g>
		<g>
			<g>
				<path fill="#EB354E" d="M47.818,18.191h-1.73c-0.432,0-0.781,0.351-0.781,0.782c0,0.431,0.35,0.781,0.781,0.781h1.73
					c1.445,0,2.619,1.174,2.619,2.617v10.606c0,0.83-0.391,1.572-0.996,2.053v-2.045c0-1.593-1.137-2.962-2.705-3.255l-0.504-0.094
					c0.111-0.346,0.174-0.714,0.174-1.096v-1.796c0-1.952-1.588-3.541-3.541-3.541c-1.951,0-3.539,1.588-3.539,3.541v1.796
					c0,0.382,0.061,0.75,0.172,1.096l-0.504,0.094c-1.566,0.292-2.705,1.662-2.705,3.255v2.266
					c-0.789-0.451-1.322-1.301-1.322-2.273V22.372c0-1.443,1.174-2.617,2.617-2.617h1.863c0.43,0,0.781-0.35,0.781-0.781
					c0-0.432-0.352-0.782-0.781-0.782h-1.863c-2.305,0-4.18,1.876-4.18,4.181v10.606c0,2.305,1.875,4.18,4.18,4.18h3.932v2.248
					c0,0.314,0.189,0.6,0.48,0.721c0.098,0.041,0.199,0.061,0.301,0.061c0.203,0,0.402-0.08,0.551-0.229l2.818-2.801h2.152
					c2.305,0,4.182-1.875,4.182-4.18V22.372C52,20.067,50.123,18.191,47.818,18.191z M40.889,26.746c0-1.09,0.887-1.978,1.977-1.978
					s1.979,0.887,1.979,1.978v1.796c0,1.091-0.889,1.978-1.979,1.978s-1.977-0.887-1.977-1.978V26.746z M47.879,35.594
					c-0.021,0-0.041,0.002-0.061,0.002h-2.475l0,0c-0.207,0-0.404,0.082-0.551,0.229l-1.715,1.703v-1.15
					c0-0.432-0.35-0.781-0.781-0.781h-4.445v-2.609c0-0.841,0.602-1.564,1.43-1.719l1.102-0.205c0.639,0.63,1.516,1.02,2.482,1.02
					s1.844-0.39,2.482-1.021l1.104,0.206c0.828,0.155,1.428,0.878,1.428,1.719V35.594L47.879,35.594z"/>
			</g>
		</g>
		<g>
			<g>
				<path fill="#EB354E" d="M42.941,18.421c-0.145-0.146-0.348-0.229-0.553-0.229s-0.406,0.083-0.553,0.229
					c-0.145,0.145-0.229,0.346-0.229,0.553c0,0.206,0.084,0.407,0.229,0.552c0.146,0.145,0.348,0.229,0.553,0.229
					s0.408-0.084,0.553-0.229c0.145-0.146,0.229-0.347,0.229-0.552C43.17,18.767,43.086,18.566,42.941,18.421z"/>
			</g>
		</g>
		<g>
			<g>
				<path fill="#EB354E" d="M26.521,38.283c-0.145-0.145-0.347-0.229-0.553-0.229c-0.205,0-0.407,0.084-0.552,0.229
					c-0.146,0.146-0.229,0.348-0.229,0.553c0,0.207,0.084,0.408,0.229,0.553c0.145,0.146,0.347,0.229,0.552,0.229
					s0.408-0.082,0.553-0.229c0.146-0.145,0.229-0.346,0.229-0.553C26.75,38.631,26.667,38.43,26.521,38.283z"/>
			</g>
		</g>
		<g>
			<g>
				<path fill="#EB354E" d="M43.623,45.35l-5.986-5.986c-0.797-0.797-2.051-0.914-2.979-0.277l-3.821,2.611
					c-0.31,0.213-0.729,0.174-0.994-0.092l-1.264-1.264c-0.305-0.305-0.799-0.305-1.104,0s-0.305,0.799,0,1.105l1.263,1.264
					c0.796,0.797,2.05,0.914,2.98,0.277l3.821-2.613c0.311-0.211,0.727-0.172,0.994,0.094l5.986,5.984
					c0.303,0.305,0.303,0.801,0,1.105c-3.84,3.84-10.085,3.84-13.924,0L16.441,35.404c-1.86-1.859-2.884-4.332-2.884-6.962
					c0-2.629,1.024-5.102,2.884-6.961c0.146-0.148,0.343-0.229,0.552-0.229c0.209,0,0.405,0.081,0.553,0.229l5.985,5.986
					c0.266,0.265,0.305,0.684,0.093,0.994l-2.612,3.82c-0.636,0.93-0.519,2.184,0.278,2.981l1.898,1.898
					c0.305,0.307,0.801,0.307,1.106,0c0.305-0.305,0.305-0.799,0-1.104l-1.899-1.9c-0.266-0.266-0.304-0.684-0.093-0.994
					l2.612-3.819c0.636-0.93,0.52-2.184-0.277-2.98l-5.986-5.986c-0.914-0.914-2.401-0.914-3.315,0
					c-4.447,4.448-4.447,11.685,0,16.134l12.156,12.154C29.715,50.889,32.636,52,35.557,52c2.922,0,5.844-1.111,8.066-3.336
					C44.537,47.75,44.537,46.264,43.623,45.35z"/>
			</g>
		</g>
		<g>
			<g>
				<path fill="#EB354E" d="M22.525,31.212l-4.736-4.737c-0.305-0.304-0.801-0.304-1.104,0c-0.305,0.305-0.305,0.8,0,1.105
					l4.736,4.736c0.152,0.152,0.352,0.229,0.552,0.229s0.4-0.077,0.553-0.229C22.83,32.012,22.83,31.517,22.525,31.212z"/>
			</g>
		</g>
		<g>
			<g>
				<path fill="#EB354E" d="M40.652,49.34l-4.982-4.984c-0.305-0.305-0.801-0.305-1.105,0c-0.305,0.307-0.305,0.801,0,1.105
					l4.982,4.984c0.154,0.152,0.354,0.229,0.555,0.229c0.197,0,0.398-0.076,0.551-0.229C40.957,50.141,40.957,49.645,40.652,49.34z"
					/>
			</g>
		</g>
	</g>
</g>
</svg>
