<?xml version="1.0" encoding="utf-8"?>
<!-- Generator: Adobe Illustrator 16.0.0, SVG Export Plug-In . SVG Version: 6.00 Build 0)  -->
<!DOCTYPE svg PUBLIC "-//W3C//DTD SVG 1.1//EN" "http://www.w3.org/Graphics/SVG/1.1/DTD/svg11.dtd">
<svg version="1.1" id="Layer_1" xmlns="http://www.w3.org/2000/svg" xmlns:xlink="http://www.w3.org/1999/xlink" x="0px" y="0px"
	 width="64px" height="64px" viewBox="0 0 64 64" enable-background="new 0 0 64 64" xml:space="preserve">
<g>
	<circle fill="#F7F0F2" cx="32" cy="32" r="32"/>
	<g id="Page-1">
		<g id="_x30_33---Searching-Map">
			<path id="Shape" fill="#EB354E" d="M12.289,51.885C12.4,51.959,12.533,52,12.666,52c0.083-0.001,0.163-0.016,0.24-0.045
				l8.427-3.24l8.426,3.242h0.02c0.143,0.055,0.299,0.055,0.441,0h0.019l8.667-3.334c0.258-0.1,0.428-0.348,0.428-0.623v-7.4
				l0.027-0.018L40.9,42.19c-0.135,0.46-0.004,0.957,0.34,1.292l6.128,6.129c0.521,0.521,1.364,0.521,1.885,0l2.357-2.357
				c0.521-0.52,0.521-1.365,0-1.885l-6.128-6.129c-0.334-0.33-0.816-0.461-1.271-0.344l-1.569-1.635
				c2.261-3.795,1.654-8.641-1.472-11.761c-0.553-0.549-1.169-1.029-1.836-1.432V12.666c0-0.219-0.109-0.425-0.29-0.549
				c-0.181-0.125-0.411-0.151-0.616-0.072L30,15.286l-8.428-3.241c-0.034-0.009-0.07-0.016-0.106-0.019
				c-0.039-0.012-0.079-0.02-0.12-0.024c-0.005,0-0.008,0-0.012,0h-0.01c-0.046,0.004-0.093,0.014-0.137,0.028
				c-0.031,0.002-0.062,0.008-0.092,0.015l-8.667,3.333C12.171,15.476,12.001,15.724,12,16v35.333
				C12,51.554,12.108,51.759,12.289,51.885L12.289,51.885z M38,47.542l-7.333,2.821v-9.081c2.351,0.957,4.982,0.957,7.333,0V47.542z
				 M50.668,46.311l-2.358,2.355l-6.128-6.127l2.357-2.356L50.668,46.311z M43.135,39.7l-1.418,1.415l-1.25-1.309
				c0.244-0.199,0.477-0.412,0.703-0.639c0.247-0.249,0.481-0.512,0.701-0.786L43.135,39.7z M42.667,32.333
				c0,3.976-2.808,7.397-6.706,8.175c-3.9,0.774-7.804-1.313-9.326-4.986c-1.521-3.672-0.237-7.909,3.069-10.118
				c3.306-2.209,7.712-1.775,10.523,1.037C41.795,28,42.674,30.121,42.667,32.333L42.667,32.333z M38,23.385
				c-2.35-0.958-4.982-0.958-7.333,0v-6.928L38,13.637V23.385z M13.333,16.458l7.333-2.82v22.362c0,0.368,0.298,0.668,0.667,0.668
				c0.368,0,0.667-0.3,0.667-0.668V13.637l7.334,2.82v7.611c-0.667,0.402-1.284,0.881-1.836,1.43c-3.774,3.775-3.774,9.895,0,13.669
				c0.553,0.549,1.169,1.029,1.836,1.432v9.764L22,47.543v-6.877C22,40.297,21.701,40,21.333,40c-0.368,0-0.667,0.297-0.667,0.666
				v6.876l-7.333,2.821V16.458z"/>
			<path id="Shape_1_" fill="#EB354E" d="M29.384,27.384c-2.002,2.002-2.601,5.013-1.518,7.629c1.084,2.616,3.636,4.321,6.468,4.321
				c2.83,0,5.384-1.705,6.467-4.321c1.084-2.616,0.484-5.627-1.518-7.629c-1.307-1.324-3.09-2.071-4.949-2.071
				C32.474,25.313,30.691,26.06,29.384,27.384L29.384,27.384z M40.001,32.333c-0.001,2.702-1.91,5.027-4.56,5.554
				c-2.649,0.527-5.302-0.892-6.336-3.388c-1.034-2.496-0.161-5.374,2.084-6.875c2.246-1.501,5.24-1.207,7.151,0.702
				C39.406,29.386,40.004,30.829,40.001,32.333L40.001,32.333z"/>
			<path id="Shape_2_" fill="#EB354E" d="M31.267,29.27c-0.814,0.811-1.271,1.914-1.267,3.063c0,0.368,0.298,0.666,0.667,0.666
				s0.667-0.298,0.667-0.666c0-1.657,1.343-3,3-3c0.368,0,0.666-0.298,0.666-0.667C35,28.298,34.702,28,34.334,28
				C33.183,27.996,32.079,28.454,31.267,29.27z"/>
			<path id="Shape_3_" fill="#EB354E" d="M15.333,17.333c-0.368,0-0.667,0.298-0.667,0.667v1.333c0,0.368,0.298,0.667,0.667,0.667
				S16,19.701,16,19.333v-1.333C16,17.631,15.702,17.333,15.333,17.333z"/>
			<path id="Shape_4_" fill="#EB354E" d="M15.333,21.333c-0.368,0-0.667,0.299-0.667,0.667v10c0,0.369,0.298,0.668,0.667,0.668
				S16,32.367,16,31.999v-10C16,21.631,15.702,21.333,15.333,21.333z"/>
		</g>
	</g>
</g>
</svg>
