<?xml version="1.0" encoding="utf-8"?>
<!-- Generator: Adobe Illustrator 16.0.0, SVG Export Plug-In . SVG Version: 6.00 Build 0)  -->
<!DOCTYPE svg PUBLIC "-//W3C//DTD SVG 1.1//EN" "http://www.w3.org/Graphics/SVG/1.1/DTD/svg11.dtd">
<svg version="1.1" id="Layer_1" xmlns="http://www.w3.org/2000/svg" xmlns:xlink="http://www.w3.org/1999/xlink" x="0px" y="0px"
	 width="64px" height="64px" viewBox="0 0 64 64" enable-background="new 0 0 64 64" xml:space="preserve">
<g>
	<circle fill="#F7F0F2" cx="32" cy="32" r="32.001"/>
	<g>
		<path fill="#EB354E" d="M50.166,38.959c-0.01-0.217-0.103-0.416-0.263-0.564l-1.716-1.57c-0.15-0.137-0.346-0.213-0.549-0.213
			c-0.013,0-0.024,0-0.037,0c-0.217,0.01-0.417,0.105-0.564,0.264l-0.959,1.049c-1.376-1.154-3.151-1.852-5.088-1.852
			c-2.255,0-4.291,0.943-5.733,2.455h-4.243V37.08c1-0.242,1.944-0.67,2.795-1.27c0.262-0.186,0.324-0.547,0.141-0.811
			c-0.186-0.262-0.548-0.324-0.811-0.141c-1.2,0.848-2.62,1.295-4.106,1.295h-2.003c-3.868,0-7.015-3.068-7.015-6.839v-4.921
			c0-1.961,0.759-3.447,2.253-4.416c1.359-0.881,3.351-1.346,5.764-1.346c2.411,0,4.403,0.465,5.763,1.346
			c1.494,0.969,2.253,2.455,2.253,4.416v4.921c0,1.341-0.397,2.639-1.15,3.755c-0.18,0.266-0.109,0.627,0.157,0.807
			c0.265,0.18,0.627,0.109,0.807-0.156c0.565-0.837,0.959-1.764,1.17-2.736h0.771c1.191,0,2.161-0.946,2.161-2.108v-1.849
			c0-1.163-0.97-2.109-2.161-2.109H37.21v-6.525c0-2.297-1.875-4.166-4.181-4.166c-0.597,0-1.166,0.126-1.68,0.353
			c-0.826-1.553-2.428-2.425-4.62-2.425h-1.921c-3.284,0-5.957,2.663-5.957,5.937v6.827h-0.591c-1.191,0-2.161,0.946-2.161,2.109
			v1.849c0,1.163,0.97,2.108,2.161,2.108h0.771c0.65,2.984,3.005,5.357,6.017,6.093v1.449H18.22c-2.418,0-4.387,1.926-4.387,4.293
			v5.488c0,0.594,0.486,1.074,1.082,1.074H18.9c0.32,0,0.581-0.26,0.581-0.58c0-0.322-0.261-0.582-0.581-0.582h-3.905v-5.4
			c0-1.727,1.447-3.131,3.225-3.131h5.286c0.472,2.055,2.33,3.549,4.525,3.549c2.194,0,4.054-1.494,4.524-3.549h1.782
			c-0.799,1.23-1.264,2.697-1.264,4.27c0,1.568,0.463,3.031,1.26,4.262H21.613c-0.322,0-0.581,0.26-0.581,0.582
			c0,0.32,0.259,0.58,0.581,0.58h13.638c1.442,1.516,3.482,2.461,5.739,2.461c4.363,0,7.914-3.537,7.914-7.885
			c0-0.961-0.174-1.881-0.491-2.73l1.541-1.684C50.101,39.385,50.176,39.178,50.166,38.959L50.166,38.959z M37.21,29.315v-2.241
			v-0.993h0.591c0.55,0,0.998,0.424,0.998,0.946v1.849c0,0.521-0.448,0.946-0.998,0.946h-0.608
			C37.202,29.654,37.21,29.485,37.21,29.315L37.21,29.315z M33.029,15.39c1.663,0,3.018,1.348,3.018,3.003v2.114
			c-0.424-0.578-0.964-1.081-1.621-1.506c-0.7-0.454-1.517-0.807-2.444-1.06V17.4c0-0.628-0.072-1.208-0.212-1.735
			C32.154,15.489,32.58,15.39,33.029,15.39L33.029,15.39z M20.015,18.091c0-2.632,2.151-4.774,4.794-4.774h1.921
			c2.638,0,4.09,1.45,4.09,4.083v0.286c-0.854-0.145-1.784-0.218-2.788-0.218c-2.675,0-4.826,0.516-6.396,1.533
			c-0.657,0.425-1.197,0.928-1.621,1.506V18.091z M18.261,29.822c-0.55,0-0.998-0.424-0.998-0.946v-1.849
			c0-0.522,0.448-0.946,0.998-0.946h0.591v0.993v2.241c0,0.17,0.007,0.339,0.018,0.507H18.261L18.261,29.822z M28.031,42.076
			c-1.552,0-2.881-0.99-3.323-2.387h0.921c0.321,0,0.581-0.26,0.581-0.582v-1.83c0.271,0.025,0.543,0.039,0.819,0.039h2.003
			c0.275,0,0.549-0.014,0.819-0.041v1.832c0,0.322,0.26,0.582,0.581,0.582h0.921C30.911,41.086,29.582,42.076,28.031,42.076
			L28.031,42.076z M41.605,46.943c-0.154,0.168-0.372,0.266-0.603,0.266c-0.228-0.002-0.446-0.1-0.601-0.268l-3.609-3.975
			l1.205-1.094l2.468,2.715c0.138,0.152,0.336,0.24,0.543,0.242c0.208,0,0.406-0.088,0.544-0.24l1.587-1.732
			c0.216-0.238,0.2-0.605-0.036-0.822c-0.237-0.217-0.605-0.199-0.821,0.037l-1.271,1.389l-2.387-2.629
			c-0.152-0.17-0.373-0.266-0.602-0.266c-0.202,0-0.397,0.074-0.548,0.211l-1.721,1.563c-0.161,0.146-0.256,0.346-0.267,0.563
			c-0.01,0.219,0.064,0.428,0.211,0.588l3.844,4.232c0.372,0.41,0.904,0.646,1.464,0.648c0.552,0,1.084-0.234,1.458-0.643
			l5.046-5.514c0.15,0.557,0.231,1.141,0.231,1.744c0,3.707-3.029,6.723-6.751,6.723c-3.724,0-6.753-3.016-6.753-6.723
			s3.029-6.723,6.753-6.723c1.634,0,3.133,0.582,4.302,1.547l-1.166,1.273c-0.216,0.236-0.2,0.604,0.036,0.82
			c0.237,0.217,0.605,0.201,0.822-0.035l2.676-2.924l1.2,1.1L41.605,46.943z"/>
		<path fill="#EB354E" d="M40.99,52c-2.211,0-4.269-0.875-5.806-2.461H21.613c-0.405,0-0.736-0.332-0.736-0.736
			c0-0.406,0.331-0.736,0.736-0.736h12.441c-0.744-1.242-1.136-2.656-1.136-4.107c0-1.455,0.393-2.871,1.139-4.115h-1.379
			c-0.539,2.098-2.433,3.549-4.647,3.549s-4.107-1.451-4.648-3.549H18.22c-1.692,0-3.069,1.336-3.069,2.977v5.246h3.75
			c0.406,0,0.736,0.33,0.736,0.736c0,0.404-0.33,0.736-0.736,0.736h-3.985c-0.683,0-1.237-0.553-1.237-1.23V42.82
			c0-2.453,2.037-4.449,4.542-4.449h6.673v-1.172c-2.968-0.771-5.298-3.131-5.984-6.059h-0.647c-1.276,0-2.315-1.016-2.315-2.264
			v-1.849c0-1.248,1.039-2.264,2.315-2.264h0.437v-6.672c0-3.359,2.742-6.092,6.111-6.092h1.921c2.15,0,3.809,0.845,4.688,2.384
			c0.513-0.207,1.055-0.311,1.612-0.311c2.39,0,4.335,1.938,4.335,4.321v6.37h0.437c1.276,0,2.315,1.016,2.315,2.264v1.849
			c0,1.248-1.039,2.264-2.315,2.264h-0.646c-0.222,0.954-0.614,1.851-1.166,2.667c-0.219,0.324-0.696,0.418-1.021,0.199
			c-0.337-0.229-0.426-0.688-0.199-1.023c0.735-1.088,1.124-2.356,1.124-3.667v-4.921c0-1.905-0.733-3.347-2.183-4.286
			c-1.333-0.865-3.297-1.322-5.678-1.322c-2.382,0-4.345,0.457-5.679,1.322c-1.448,0.938-2.183,2.38-2.183,4.286v4.921
			c0,3.685,3.076,6.683,6.859,6.683h2.003c1.455,0,2.843-0.438,4.017-1.264c0.325-0.227,0.802-0.143,1.027,0.176
			c0.232,0.332,0.152,0.793-0.178,1.027c-0.83,0.586-1.747,1.01-2.729,1.264v1.17h4.022c1.535-1.582,3.592-2.453,5.799-2.453
			c1.846,0,3.641,0.635,5.073,1.793l0.86-0.939c0.175-0.191,0.413-0.303,0.671-0.314h0.044c0.242,0,0.475,0.09,0.652,0.254
			l1.717,1.57c0.191,0.176,0.302,0.414,0.313,0.672c0.011,0.26-0.079,0.506-0.253,0.697l-1.477,1.613
			c0.31,0.863,0.468,1.77,0.468,2.695C49.06,48.393,45.438,52,40.99,52z M21.613,48.375c-0.234,0-0.426,0.191-0.426,0.428
			c0,0.234,0.191,0.426,0.426,0.426h13.704l0.046,0.049c1.481,1.555,3.48,2.412,5.627,2.412c4.277,0,7.759-3.469,7.759-7.73
			c0-0.922-0.162-1.822-0.48-2.678l-0.033-0.088l1.605-1.752c0.117-0.131,0.179-0.299,0.17-0.475
			c-0.007-0.176-0.083-0.338-0.213-0.457l-1.715-1.57c-0.122-0.111-0.28-0.172-0.444-0.172c-0.205,0.008-0.367,0.084-0.487,0.213
			l-1.059,1.158l-0.114-0.096c-1.395-1.17-3.166-1.814-4.988-1.814c-2.144,0-4.14,0.854-5.62,2.406l-0.047,0.047h-4.464v-1.723
			l0.118-0.029c0.988-0.24,1.91-0.66,2.741-1.246c0.191-0.135,0.238-0.402,0.103-0.594c-0.131-0.186-0.41-0.234-0.593-0.104
			c-1.226,0.865-2.677,1.322-4.196,1.322h-2.003c-3.954,0-7.17-3.137-7.17-6.993v-4.921c0-2.017,0.781-3.546,2.323-4.546
			c1.385-0.897,3.407-1.371,5.849-1.371c2.44,0,4.463,0.474,5.848,1.371c1.542,1,2.323,2.529,2.323,4.546v4.921
			c0,1.373-0.407,2.701-1.178,3.841c-0.131,0.195-0.079,0.461,0.116,0.592c0.187,0.127,0.463,0.072,0.591-0.115
			c0.553-0.818,0.939-1.72,1.147-2.681l0.026-0.122h0.896c1.105,0,2.006-0.876,2.006-1.954v-1.849c0-1.077-0.9-1.954-2.006-1.954
			h-0.746v-6.68c0-2.211-1.806-4.011-4.025-4.011c-0.563,0-1.106,0.114-1.617,0.339L31.28,14.78l-0.067-0.127
			c-0.815-1.533-2.366-2.343-4.483-2.343h-1.921c-3.198,0-5.802,2.594-5.802,5.782v6.982h-0.746c-1.105,0-2.006,0.876-2.006,1.954
			v1.849c0,1.077,0.9,1.954,2.006,1.954h0.896l0.026,0.122c0.635,2.908,2.95,5.255,5.901,5.976l0.118,0.029v1.725H18.22
			c-2.334,0-4.232,1.857-4.232,4.139v5.488c0,0.508,0.417,0.92,0.928,0.92H18.9c0.235,0,0.427-0.191,0.427-0.426
			c0-0.236-0.191-0.428-0.427-0.428h-4.06V42.82c0-1.813,1.516-3.285,3.379-3.285h5.409l0.028,0.119
			c0.464,2.02,2.263,3.43,4.374,3.43c2.112,0,3.911-1.41,4.373-3.43l0.028-0.119h2.191l-0.156,0.238
			c-0.81,1.25-1.238,2.697-1.238,4.186c0,1.486,0.428,2.93,1.234,4.178l0.155,0.238H21.613z M40.99,50.836
			c-3.81,0-6.908-3.086-6.908-6.877c0-3.793,3.099-6.879,6.908-6.879c1.603,0,3.165,0.563,4.401,1.584l0.125,0.104l-1.277,1.395
			c-0.157,0.172-0.145,0.443,0.028,0.602c0.166,0.152,0.448,0.139,0.604-0.027l2.779-3.037l1.43,1.309l-0.105,0.115l-7.256,7.926
			c-0.365,0.396-1.063,0.4-1.432-0.004l-3.714-4.088l1.436-1.305l2.571,2.832c0.219,0.242,0.64,0.242,0.858,0.002l1.588-1.734
			c0.157-0.174,0.145-0.443-0.028-0.602c-0.168-0.154-0.45-0.141-0.601,0.025l-1.387,1.514l-2.502-2.752
			c-0.232-0.26-0.671-0.281-0.93-0.047l-1.722,1.564c-0.131,0.119-0.207,0.279-0.215,0.455c-0.009,0.178,0.052,0.346,0.171,0.477
			l3.844,4.232c0.343,0.379,0.835,0.596,1.349,0.598c0.509,0,0.999-0.217,1.344-0.594l5.236-5.721l0.074,0.273
			c0.156,0.58,0.236,1.182,0.236,1.783C47.896,47.75,44.798,50.836,40.99,50.836z M40.99,37.391c-3.638,0-6.598,2.945-6.598,6.568
			c0,3.621,2.96,6.568,6.598,6.568c3.637,0,6.596-2.947,6.596-6.568c0-0.48-0.053-0.959-0.157-1.426l-4.851,5.301
			c-0.403,0.439-0.977,0.691-1.572,0.691c-0.603,0-1.178-0.256-1.578-0.699l-3.845-4.232c-0.174-0.189-0.262-0.438-0.251-0.697
			c0.014-0.26,0.126-0.498,0.317-0.672l1.722-1.563c0.379-0.344,1.025-0.314,1.368,0.066l2.271,2.502l1.157-1.264
			c0.261-0.287,0.751-0.313,1.04-0.045c0.299,0.273,0.319,0.74,0.047,1.039l-1.588,1.734c-0.333,0.367-0.983,0.367-1.316-0.004
			l-2.363-2.6l-0.976,0.885l3.506,3.861c0.249,0.273,0.726,0.271,0.974,0l7.15-7.811l-0.972-0.889l-2.571,2.807
			c-0.263,0.287-0.754,0.311-1.041,0.047c-0.299-0.273-0.319-0.74-0.047-1.039l1.055-1.154
			C43.906,37.891,42.465,37.391,40.99,37.391z M28.031,42.23c-1.604,0-2.998-1.002-3.471-2.494l-0.064-0.201h1.133
			c0.235,0,0.427-0.191,0.427-0.428v-2.002l0.17,0.018c0.264,0.025,0.534,0.039,0.804,0.039h2.003c0.262,0,0.532-0.014,0.804-0.041
			l0.17-0.016v2.002c0,0.236,0.191,0.428,0.427,0.428h1.133l-0.064,0.201C31.028,41.229,29.635,42.23,28.031,42.23z M24.928,39.844
			c0.488,1.25,1.709,2.076,3.104,2.076c1.394,0,2.614-0.826,3.103-2.076h-0.701c-0.405,0-0.736-0.33-0.736-0.736v-1.662
			c-0.225,0.018-0.447,0.025-0.664,0.025h-2.003c-0.222,0-0.444-0.008-0.664-0.025v1.662c0,0.406-0.331,0.736-0.736,0.736H24.928z
			 M37.801,29.978h-0.772l0.009-0.165c0.01-0.165,0.018-0.331,0.018-0.498v-3.389h0.746c0.636,0,1.153,0.494,1.153,1.101v1.849
			C38.954,29.483,38.437,29.978,37.801,29.978z M37.356,29.667h0.444c0.465,0,0.843-0.355,0.843-0.791v-1.849
			c0-0.436-0.378-0.791-0.843-0.791h-0.437v3.079C37.364,29.433,37.361,29.55,37.356,29.667z M19.035,29.978h-0.774
			c-0.636,0-1.153-0.494-1.153-1.101v-1.849c0-0.607,0.518-1.101,1.153-1.101h0.746v3.389c0,0.167,0.006,0.333,0.018,0.497
			L19.035,29.978z M18.261,26.236c-0.465,0-0.843,0.355-0.843,0.791v1.849c0,0.436,0.378,0.791,0.843,0.791h0.444
			c-0.006-0.117-0.008-0.234-0.008-0.352v-3.079H18.261z M36.202,20.981l-0.28-0.382c-0.412-0.561-0.943-1.055-1.58-1.467
			c-0.681-0.441-1.489-0.792-2.401-1.041l-0.113-0.031V17.4c0-0.606-0.069-1.176-0.207-1.696l-0.033-0.126l0.119-0.054
			c0.418-0.191,0.863-0.289,1.323-0.289c1.749,0,3.173,1.417,3.173,3.158V20.981z M32.137,17.824
			c0.896,0.254,1.693,0.607,2.374,1.047c0.532,0.345,0.996,0.745,1.381,1.192v-1.67c0-1.57-1.284-2.848-2.862-2.848
			c-0.373,0-0.733,0.07-1.076,0.209c0.122,0.51,0.184,1.063,0.184,1.646V17.824z M19.859,20.981v-2.89
			c0-2.718,2.221-4.929,4.949-4.929h1.921c2.738,0,4.244,1.505,4.244,4.238v0.469l-0.18-0.031c-0.847-0.142-1.776-0.215-2.763-0.215
			c-2.644,0-4.767,0.507-6.311,1.508c-0.638,0.413-1.169,0.906-1.581,1.467L19.859,20.981z M24.809,13.472
			c-2.558,0-4.639,2.072-4.639,4.619v1.973c0.385-0.448,0.849-0.847,1.381-1.192c1.597-1.034,3.776-1.558,6.48-1.558
			c0.934,0,1.818,0.064,2.633,0.19V17.4c0-2.533-1.396-3.928-3.935-3.928H24.809z"/>
	</g>
</g>
</svg>
