<?xml version="1.0" encoding="utf-8"?>
<!-- Generator: Adobe Illustrator 16.0.0, SVG Export Plug-In . SVG Version: 6.00 Build 0)  -->
<!DOCTYPE svg PUBLIC "-//W3C//DTD SVG 1.1//EN" "http://www.w3.org/Graphics/SVG/1.1/DTD/svg11.dtd">
<svg version="1.1" id="Layer_1" xmlns="http://www.w3.org/2000/svg" xmlns:xlink="http://www.w3.org/1999/xlink" x="0px" y="0px"
	 width="48px" height="48px" viewBox="0 0 48 48" enable-background="new 0 0 48 48" xml:space="preserve">
<g id="XMLID_665_">
	<path id="XMLID_734_" fill="#F975C7" d="M25.77,34.43c1.422-0.066,2.824-0.645,3.911-1.729c2.314-2.315,2.314-6.071,0-8.386
		l-5.994-5.993c-2.316-2.316-6.07-2.316-8.386,0c-1.086,1.085-1.663,2.487-1.73,3.909c-3.325-0.448-6.814,0.605-9.369,3.161
		c-4.349,4.349-4.349,11.4,0,15.75L6.86,43.8c4.349,4.349,11.4,4.349,15.749,0C25.166,41.244,26.218,37.756,25.77,34.43L25.77,34.43
		z"/>
	<path id="XMLID_732_" fill="#F975C7" d="M46.178,4.211l-2.39-2.389c-0.695-0.696-1.823-0.696-2.52,0l-4.571,4.572
		c-0.694,0.696-0.694,1.824,0,2.52l2.391,2.389c0.694,0.695,1.822,0.695,2.52,0l4.57-4.571C46.873,6.035,46.873,4.907,46.178,4.211z
		"/>
	<g id="XMLID_948_">
		<path id="XMLID_1033_" fill="#EF3CAB" d="M16.547,27.631l19.43-19.43l3.817,3.817l-19.43,19.431L16.547,27.631z"/>
	</g>
	<circle id="XMLID_1034_" fill="#EF3CAB" cx="16.128" cy="31.887" r="4.854"/>
	<g id="XMLID_130_">
		<path id="XMLID_164_" fill="#1C191A" d="M29.918,23.226l10.468-10.467c0.677-0.009,1.351-0.27,1.87-0.781l0.872,0.872
			c0.182,0.183,0.422,0.274,0.662,0.274s0.48-0.091,0.663-0.274c0.366-0.366,0.366-0.959,0-1.326l-0.871-0.871l1.946-1.947
			L46.4,9.577c0.183,0.183,0.423,0.275,0.661,0.275c0.24,0,0.48-0.092,0.664-0.275c0.366-0.366,0.366-0.959,0-1.326L46.854,7.38
			c1.046-1.061,1.042-2.776-0.013-3.832l0,0l-2.389-2.39c-0.515-0.513-1.197-0.796-1.924-0.796c-0.719,0-1.396,0.278-1.908,0.783
			l-0.872-0.872c-0.364-0.365-0.959-0.365-1.325,0c-0.366,0.366-0.366,0.96,0,1.326l0.871,0.872l-1.946,1.947l-0.872-0.871
			c-0.364-0.366-0.959-0.366-1.325,0s-0.366,0.959,0,1.326l0.871,0.872c-0.496,0.503-0.773,1.167-0.782,1.873L24.773,18.083
			l-0.425-0.425c-2.678-2.677-7.034-2.677-9.712,0c-0.976,0.978-1.629,2.214-1.887,3.553c-1.854-0.103-3.713,0.221-5.424,0.952
			c-0.477,0.204-0.697,0.754-0.494,1.23c0.152,0.356,0.498,0.57,0.863,0.57c0.121,0,0.247-0.024,0.367-0.076
			c1.69-0.722,3.553-0.974,5.382-0.728c0.261,0.035,0.524-0.04,0.727-0.208c0.202-0.168,0.322-0.413,0.336-0.675
			c0.06-1.242,0.575-2.411,1.457-3.292c1.945-1.947,5.112-1.947,7.061,0l0.425,0.425l-6.719,6.719
			c-0.198-0.021-0.4-0.032-0.603-0.032c-1.547,0-3,0.603-4.094,1.696c-2.258,2.259-2.258,5.932,0,8.189
			c1.129,1.129,2.611,1.693,4.094,1.693s2.966-0.564,4.096-1.693c1.093-1.094,1.694-2.548,1.694-4.094
			c0-0.211-0.012-0.42-0.033-0.627l6.707-6.707l0.425,0.424c1.947,1.947,1.947,5.114,0,7.061c-0.88,0.881-2.049,1.398-3.291,1.457
			c-0.261,0.013-0.507,0.135-0.676,0.336c-0.168,0.201-0.244,0.465-0.209,0.726c0.431,3.185-0.626,6.313-2.895,8.581
			c-1.925,1.926-4.487,2.988-7.211,2.988s-5.285-1.063-7.212-2.988l-2.66-2.659c-2.963-2.964-3.814-7.37-2.166-11.226
			c0.203-0.477-0.018-1.027-0.494-1.23c-0.476-0.204-1.026,0.018-1.23,0.493c-0.938,2.192-1.204,4.595-0.771,6.948
			c0.444,2.409,1.597,4.602,3.337,6.341l2.659,2.659C8.479,46.743,11.511,48,14.735,48c3.224,0,6.256-1.257,8.538-3.537
			c2.459-2.461,3.715-5.775,3.517-9.213c1.339-0.258,2.575-0.91,3.553-1.887c2.678-2.678,2.678-7.035,0-9.712L29.918,23.226z
			 M42.528,2.237c0.226,0,0.438,0.088,0.597,0.248l2.391,2.389c0.328,0.329,0.328,0.865,0,1.194l-4.572,4.571
			c-0.329,0.329-0.864,0.329-1.193,0L37.36,8.25c-0.159-0.16-0.247-0.371-0.247-0.597s0.088-0.438,0.247-0.597l4.572-4.571
			C42.091,2.325,42.303,2.237,42.528,2.237L42.528,2.237z M18.896,34.655c-0.738,0.739-1.723,1.147-2.769,1.147
			s-2.028-0.408-2.769-1.147c-0.739-0.739-1.146-1.723-1.146-2.769s0.407-2.03,1.146-2.77c0.74-0.74,1.723-1.147,2.769-1.147
			s2.03,0.407,2.769,1.147c0.739,0.739,1.146,1.723,1.146,2.77C20.043,32.933,19.636,33.916,18.896,34.655z M20.222,27.791
			c-0.432-0.432-0.92-0.785-1.448-1.058l17.21-17.209l2.492,2.492L21.271,29.222C21,28.701,20.648,28.219,20.222,27.791
			L20.222,27.791z"/>
		<path id="XMLID_167_" fill="#1C191A" d="M10.187,41.285c0.184,0.183,0.424,0.274,0.662,0.274c0.24,0,0.48-0.092,0.665-0.274
			c0.365-0.367,0.365-0.961,0-1.326l-3.478-3.476c-0.366-0.366-0.958-0.366-1.324,0s-0.366,0.96,0,1.325L10.187,41.285z"/>
		<path id="XMLID_174_" fill="#1C191A" d="M3.539,24.728c-0.176,0.175-0.275,0.416-0.275,0.663s0.1,0.488,0.275,0.662
			c0.173,0.176,0.416,0.275,0.662,0.275c0.248,0,0.488-0.1,0.662-0.275c0.176-0.174,0.275-0.415,0.275-0.662s-0.1-0.487-0.275-0.663
			c-0.173-0.174-0.416-0.274-0.662-0.274S3.712,24.553,3.539,24.728z"/>
	</g>
</g>
</svg>
