<?xml version="1.0" encoding="utf-8"?>
<!-- Generator: Adobe Illustrator 16.0.0, SVG Export Plug-In . SVG Version: 6.00 Build 0)  -->
<!DOCTYPE svg PUBLIC "-//W3C//DTD SVG 1.1//EN" "http://www.w3.org/Graphics/SVG/1.1/DTD/svg11.dtd">
<svg version="1.1" id="Layer_1" xmlns="http://www.w3.org/2000/svg" xmlns:xlink="http://www.w3.org/1999/xlink" x="0px" y="0px"
	 width="48px" height="48px" viewBox="0 0 48 48" enable-background="new 0 0 48 48" xml:space="preserve">
<g>
	<path fill="#FFFFFF" d="M15.935,20.25h16.122v7.5H15.935V20.25z"/>
	<path fill="#A5F9DD" d="M4.688,27.75H2.813c-1.036,0-1.875-0.84-1.875-1.875v-3.75c0-1.031,0.844-1.875,1.875-1.875h1.875V27.75z"
		/>
	<g>
		<path fill="#B5BAB9" d="M13.125,38.063L13.125,38.063c-1.547,0-2.813-1.266-2.813-2.813v-22.5c0-1.547,1.266-2.813,2.813-2.813
			l0,0c1.547,0,2.813,1.266,2.813,2.813v22.5C15.938,36.797,14.672,38.063,13.125,38.063z"/>
		<path fill="#B5BAB9" d="M7.5,35.719c-1.547,0-2.813-1.266-2.813-2.813V15.094c0-1.547,1.266-2.813,2.813-2.813
			s2.813,1.266,2.813,2.813v17.813C10.313,34.453,9.047,35.719,7.5,35.719z"/>
		<path fill="#B5BAB9" d="M34.875,9.938L34.875,9.938c1.547,0,2.813,1.266,2.813,2.813v22.5c0,1.547-1.266,2.813-2.813,2.813l0,0
			c-1.547,0-2.813-1.266-2.813-2.813v-22.5C32.063,11.203,33.328,9.938,34.875,9.938z"/>
		<path fill="#B5BAB9" d="M40.5,12.281c1.547,0,2.813,1.266,2.813,2.813v17.813c0,1.547-1.266,2.813-2.813,2.813
			s-2.813-1.266-2.813-2.813V15.094C37.688,13.547,38.953,12.281,40.5,12.281z"/>
	</g>
	<path fill="#A5F9DD" d="M43.313,20.25h1.875c1.031,0,1.875,0.844,1.875,1.875v3.75c0,1.031-0.844,1.875-1.875,1.875h-1.875V20.25z"
		/>
	<g>
		<path fill="#1C191A" d="M45.188,19.313H44.25v-4.219c0-2.068-1.683-3.75-3.75-3.75c-0.724,0-1.399,0.205-1.972,0.561
			C38.145,10.242,36.651,9,34.875,9h-0.001c-2.067,0-3.75,1.682-3.75,3.75v6.563H16.876V12.75c0-2.068-1.683-3.75-3.751-3.75
			c-1.776,0-3.27,1.242-3.653,2.905c-0.572-0.356-1.248-0.561-1.972-0.561c-2.067,0-3.75,1.682-3.75,3.75v4.219H2.813
			C1.263,19.313,0,20.574,0,22.125v3.75c0,1.551,1.263,2.813,2.813,2.813H3.75v4.219c0,2.068,1.683,3.75,3.75,3.75
			c0.724,0,1.399-0.205,1.972-0.561C9.855,37.758,11.349,39,13.125,39h0.001c2.067,0,3.75-1.682,3.75-3.75v-6.563h14.248v6.563
			c0,2.068,1.683,3.75,3.751,3.75c1.776,0,3.27-1.242,3.653-2.904c0.572,0.355,1.248,0.561,1.972,0.561
			c2.067,0,3.75-1.682,3.75-3.75v-4.219h0.938c1.55,0,2.813-1.262,2.813-2.813v-3.75C48,20.574,46.737,19.313,45.188,19.313z
			 M3.75,26.813H2.813c-0.517,0-0.938-0.42-0.938-0.938v-3.75c0-0.517,0.421-0.938,0.938-0.938H3.75V26.813z M9.375,32.906
			c0,0.518-0.21,0.986-0.55,1.326S8.017,34.781,7.5,34.781c-1.034,0-1.875-0.841-1.875-1.875V15.094
			c0-1.034,0.841-1.875,1.875-1.875s1.875,0.841,1.875,1.875V32.906z M15.001,35.25c0,1.034-0.842,1.875-1.875,1.875h-0.001
			c-1.032,0-1.875-0.841-1.875-1.875v-22.5c0-1.034,0.843-1.875,1.876-1.875s1.875,0.841,1.875,1.875V35.25z M31.119,23.063h-6.557
			c-0.517,0-0.938,0.42-0.938,0.938s0.421,0.938,0.938,0.938h6.557v1.875H16.872v-5.625h14.247V23.063z M36.75,35.25
			c0,1.034-0.843,1.875-1.876,1.875s-1.875-0.841-1.875-1.875V24.048c0,0.021-0.002,0.041-0.005,0.06v-0.217
			c0.003,0.019,0.005,0.04,0.005,0.06V12.75c0-1.034,0.842-1.875,1.875-1.875h0.001c1.032,0,1.875,0.841,1.875,1.875V35.25z
			 M42.375,32.906c0,1.034-0.841,1.875-1.875,1.875s-1.875-0.841-1.875-1.875V15.094c0-1.034,0.841-1.875,1.875-1.875
			s1.875,0.841,1.875,1.875V32.906z M46.125,25.875c0,0.518-0.421,0.938-0.938,0.938H44.25v-5.625h0.938
			c0.517,0,0.938,0.42,0.938,0.938V25.875z"/>
		<path fill="#1C191A" d="M20.813,24.938c-0.517,0-0.938-0.42-0.938-0.938s0.42-0.938,0.938-0.938l0,0
			c0.52,0,0.938,0.42,0.938,0.938S21.333,24.938,20.813,24.938z"/>
	</g>
</g>
</svg>
