<?xml version="1.0" encoding="utf-8"?>
<!-- Generator: Adobe Illustrator 16.0.0, SVG Export Plug-In . SVG Version: 6.00 Build 0)  -->
<!DOCTYPE svg PUBLIC "-//W3C//DTD SVG 1.1//EN" "http://www.w3.org/Graphics/SVG/1.1/DTD/svg11.dtd">
<svg version="1.1" id="Layer_1" xmlns="http://www.w3.org/2000/svg" xmlns:xlink="http://www.w3.org/1999/xlink" x="0px" y="0px"
	 width="48px" height="48px" viewBox="0 0 48 48" enable-background="new 0 0 48 48" xml:space="preserve">
<g>
	<g>
		<g>
			<g>
				<g>
					<g>
						<path fill="#FF8DA0" d="M40.703,32.659l5.361-1.705c0-16.578-13.51-30.016-30.174-30.016l-1.714,5.333"/>
					</g>
				</g>
			</g>
		</g>
		<g>
			<g>
				<g>
					<path fill="#FFCCD5" d="M38.772,24.063c0.928,2.592,1.571,5.457,1.931,8.597l-2.408,0.767v7.046
						c0,0.653-0.268,1.245-0.697,1.673c-0.431,0.428-1.026,0.693-1.682,0.693c-1.313,0-2.38-1.061-2.38-2.366v-5.532l-6.783,2.157
						v6.998c0,1.667-1.381,3.013-3.067,2.967c-1.625-0.044-2.899-1.411-2.899-3.028v-5.038l-7.491,2.384l-4.197,1.335l-2.67,0.849
						l-0.533,0.17c-1.756,0.559-3.414-1.09-2.853-2.838l1.02-3.174l2.164-6.73l2.755-8.569l5.193-16.149
						c9.816,1.112,16.981,4.965,21.433,11.495"/>
				</g>
			</g>
		</g>
		<g>
			<g>
				<g>
					<ellipse fill="#FFBECB" cx="20.126" cy="15.875" rx="4.725" ry="4.701"/>
				</g>
			</g>
		</g>
		<g>
			<g>
				<g>
					<ellipse fill="#FF9EB1" cx="19.85" cy="34.568" rx="4.439" ry="4.415"/>
				</g>
			</g>
		</g>
		<g>
			<g>
				<g>
					<path fill="#CEEA9D" d="M28.771,24.572c-1.546-1.6-4.105-1.632-5.714-0.07l5.6,5.797
						C30.267,28.737,30.317,26.174,28.771,24.572L28.771,24.572z"/>
				</g>
			</g>
		</g>
		<g>
			<g>
				<g>
					<path fill="#CEEA9D" d="M10.885,29.912c-1.259,1.253-3.079,1.612-4.657,1.078l2.756-8.57c0.694,0.207,1.35,0.583,1.899,1.13
						C12.65,25.307,12.65,28.154,10.885,29.912z"/>
				</g>
			</g>
		</g>
		<g>
			<g>
				<g>
					<path fill="#FF9CAD" d="M38.772,24.063c-0.641,0.571-1.484,0.916-2.408,0.916c-2.008,0-3.637-1.633-3.637-3.646
						c0-1.754,1.234-3.218,2.881-3.567C36.89,19.644,37.944,21.744,38.772,24.063L38.772,24.063z"/>
				</g>
			</g>
		</g>
		<g>
			<g>
				<g>
					<path fill="#FF9CAD" d="M13.296,41.379l-4.197,1.335l-2.67,0.849c-0.13-0.373-0.202-0.773-0.202-1.192
						c0-1.993,1.612-3.61,3.603-3.61C11.477,38.76,12.865,39.866,13.296,41.379z"/>
				</g>
			</g>
		</g>
	</g>
	<g>
		<g>
			<path fill="#1C191A" d="M36.685,10.484c0.33,0.221,0.771,0.206,1.087-0.035c0.298-0.227,0.43-0.625,0.335-0.986
				c-0.104-0.387-0.455-0.671-0.854-0.693c-0.396-0.021-0.773,0.221-0.92,0.591C36.175,9.765,36.319,10.246,36.685,10.484
				L36.685,10.484z"/>
			<path fill="#1C191A" d="M40.759,12.353c-0.313-0.412-0.898-0.493-1.311-0.18c-0.411,0.313-0.493,0.9-0.18,1.313
				c3.697,4.886,5.713,10.675,5.854,16.784l-3.633,1.155c-0.385-2.765-1.001-5.343-1.836-7.68l0,0
				c-0.852-2.382-1.951-4.571-3.271-6.507c0,0-0.002,0-0.002,0c-4.43-6.5-11.481-10.452-20.968-11.757l1.156-3.599
				c6.127,0.137,11.937,2.132,16.843,5.79c0.168,0.125,0.363,0.185,0.559,0.185c0.285,0,0.566-0.131,0.75-0.378
				c0.309-0.416,0.223-1.002-0.192-1.312C29.116,2.133,22.672,0,15.89,0C15.484,0,15.124,0.264,15,0.65L7.818,22.99l-2.48,7.713
				c-0.001,0.005-0.003,0.01-0.004,0.016l-3.18,9.889c-0.366,1.139-0.069,2.374,0.774,3.223c0.852,0.857,2.098,1.163,3.251,0.796
				l13.672-4.35v3.757c0,2.13,1.708,3.908,3.81,3.966C23.698,48,23.734,48,23.771,48c1.032,0,2-0.393,2.74-1.114
				c0.76-0.74,1.178-1.732,1.178-2.791v-6.312l4.913-1.563v4.251c0,1.821,1.486,3.304,3.314,3.304c0.882,0,1.714-0.343,2.341-0.966
				c0.627-0.625,0.973-1.455,0.973-2.338v-6.36l7.119-2.264C46.737,31.724,47,31.362,47,30.954
				C47,24.182,44.841,17.749,40.759,12.353L40.759,12.353z M35.222,18.878c0.942,1.474,1.755,3.096,2.426,4.838
				c-0.392,0.211-0.832,0.325-1.283,0.325c-1.49,0-2.701-1.215-2.701-2.708C33.663,20.269,34.291,19.316,35.222,18.878z
				 M10.226,29.247c-0.751,0.747-1.766,1.113-2.79,1.039l2.121-6.594c0.243,0.146,0.466,0.322,0.668,0.522
				c0.676,0.673,1.049,1.566,1.049,2.517C11.273,27.681,10.901,28.574,10.226,29.247z M7.163,42.346
				c0.013-1.463,1.206-2.648,2.667-2.648c0.872,0,1.673,0.431,2.166,1.111L7.163,42.346z M22.33,37.025
				c-1.366,1.359-3.592,1.359-4.958,0c-0.66-0.657-1.024-1.529-1.024-2.457c0-0.927,0.364-1.799,1.024-2.456
				c0.683-0.68,1.581-1.02,2.479-1.02c0.899,0,1.796,0.34,2.48,1.02c0.66,0.657,1.024,1.529,1.024,2.456
				C23.354,35.496,22.99,36.369,22.33,37.025L22.33,37.025z M38.011,32.532c-0.389,0.124-0.651,0.485-0.651,0.894v7.046
				c0,0.38-0.15,0.737-0.421,1.007c-0.273,0.271-0.635,0.422-1.022,0.422c-0.797,0-1.444-0.641-1.444-1.429v-5.532
				c0-0.3-0.142-0.58-0.383-0.757c-0.24-0.177-0.551-0.228-0.836-0.137l-6.783,2.157c-0.387,0.124-0.652,0.486-0.652,0.894v6.998
				c0,0.548-0.217,1.063-0.611,1.447c-0.401,0.391-0.93,0.599-1.495,0.583c-1.096-0.03-1.989-0.969-1.989-2.092v-4.448
				c0.703-0.259,1.362-0.668,1.926-1.229l0,0c1.016-1.011,1.577-2.355,1.577-3.787c0-1.431-0.561-2.775-1.577-3.787
				c-2.094-2.082-5.5-2.083-7.594,0c-1.017,1.012-1.577,2.356-1.577,3.787c0,1.432,0.56,2.776,1.577,3.787
				c0.327,0.325,0.685,0.6,1.065,0.823l-3.288,1.046c-0.777-1.451-2.312-2.402-4.001-2.402c-2.502,0-4.538,2.04-4.538,4.548
				c0,0.178,0.01,0.354,0.031,0.529c-0.395,0.038-0.78-0.1-1.07-0.392c-0.352-0.355-0.472-0.851-0.32-1.325l2.918-9.076
				c0.282,0.044,0.566,0.065,0.848,0.065c1.417,0,2.798-0.555,3.843-1.594c1.033-1.027,1.602-2.394,1.602-3.847
				s-0.568-2.819-1.602-3.847c-0.412-0.409-0.886-0.75-1.401-1.008l4.688-14.581c8.62,1.122,15.107,4.493,19.313,10.034
				c-1.414,0.794-2.35,2.317-2.35,4.004c0,2.527,2.052,4.583,4.572,4.583c0.664,0,1.313-0.145,1.904-0.417
				c0.633,2.005,1.105,4.184,1.412,6.503L38.011,32.532z"/>
			<path fill="#1C191A" d="M25.788,15.875c0-1.507-0.591-2.925-1.662-3.99c-2.205-2.194-5.795-2.194-8.001,0
				c-1.071,1.065-1.661,2.482-1.661,3.99c0,1.507,0.59,2.925,1.661,3.99c1.104,1.097,2.552,1.646,4.001,1.646
				c1.448,0,2.897-0.548,4-1.646C25.197,18.8,25.788,17.382,25.788,15.875L25.788,15.875z M22.809,18.534
				c-1.48,1.472-3.887,1.472-5.367,0c-0.715-0.71-1.108-1.655-1.108-2.659s0.393-1.948,1.108-2.659
				c0.741-0.736,1.712-1.104,2.685-1.104c0.972,0,1.943,0.368,2.683,1.104c0.715,0.71,1.108,1.655,1.108,2.659
				S23.524,17.823,22.809,18.534z"/>
			<path fill="#1C191A" d="M29.442,23.921c-1.901-1.97-5.058-2.011-7.035-0.092c-0.178,0.173-0.28,0.409-0.283,0.658
				c-0.004,0.249,0.09,0.489,0.263,0.667l5.599,5.796c0.183,0.19,0.427,0.286,0.672,0.286c0.234,0,0.469-0.088,0.65-0.265
				C31.284,29.054,31.345,25.891,29.442,23.921L29.442,23.921z M28.58,28.871l-4.101-4.245c1.182-0.599,2.66-0.396,3.619,0.599
				C29.06,26.219,29.214,27.705,28.58,28.871z"/>
		</g>
	</g>
</g>
</svg>
