<?xml version="1.0" encoding="utf-8"?>
<!-- Generator: Adobe Illustrator 16.0.0, SVG Export Plug-In . SVG Version: 6.00 Build 0)  -->
<!DOCTYPE svg PUBLIC "-//W3C//DTD SVG 1.1//EN" "http://www.w3.org/Graphics/SVG/1.1/DTD/svg11.dtd">
<svg version="1.1" id="Layer_1" xmlns="http://www.w3.org/2000/svg" xmlns:xlink="http://www.w3.org/1999/xlink" x="0px" y="0px"
	 width="48px" height="48px" viewBox="0 0 48 48" enable-background="new 0 0 48 48" xml:space="preserve">
<g id="XMLID_2340_">
	<path id="XMLID_1551_" fill="#DBDAD9" d="M0.938,42.688h46.125v4.5H0.938V42.688z"/>
	<path id="XMLID_1550_" fill="#EFA573" d="M3.75,5.375h40.5v37.313H3.75V5.375z"/>
	<path id="XMLID_1549_" fill="#C6F4F3" d="M24,29.375c-3.728,0-6.75,3.021-6.75,6.75v6.563h13.5v-6.563
		C30.75,32.396,27.729,29.375,24,29.375z"/>
	<path id="XMLID_1548_" fill="#F9D0B9" d="M11.594,1.063h24.813v4.313H11.594V1.063z"/>
	<g>
		<path id="XMLID_1994_" fill="#C6F4F3" d="M8.25,11.375h4.5v4.5h-4.5V11.375z"/>
		<path id="XMLID_1993_" fill="#C6F4F3" d="M17.25,11.375h4.5v4.5h-4.5V11.375z"/>
		<path id="XMLID_1992_" fill="#C6F4F3" d="M26.25,11.375h4.5v4.5h-4.5V11.375z"/>
		<path id="XMLID_1991_" fill="#C6F4F3" d="M35.25,11.375h4.5v4.5h-4.5V11.375z"/>
		<path id="XMLID_1990_" fill="#C6F4F3" d="M8.25,20.375h4.5v4.5h-4.5V20.375z"/>
		<path id="XMLID_1989_" fill="#C6F4F3" d="M17.25,20.375h4.5v4.5h-4.5V20.375z"/>
		<path id="XMLID_1988_" fill="#C6F4F3" d="M26.25,20.375h4.5v4.5h-4.5V20.375z"/>
		<path id="XMLID_1987_" fill="#C6F4F3" d="M35.25,20.375h4.5v4.5h-4.5V20.375z"/>
		<path id="XMLID_1986_" fill="#C6F4F3" d="M8.25,29.375h4.5v4.5h-4.5V29.375z"/>
		<path id="XMLID_1985_" fill="#C6F4F3" d="M35.25,29.375h4.5v4.5h-4.5V29.375z"/>
	</g>
	<g id="XMLID_630_">
		<g id="XMLID_631_">
			<path id="XMLID_806_" fill="#1C191A" d="M47.063,41.75h-1.875V5.375c0-0.518-0.42-0.938-0.938-0.938h-6.906V1.063
				c0-0.518-0.42-0.938-0.938-0.938H11.594c-0.518,0-0.938,0.42-0.938,0.938v3.375H3.75c-0.518,0-0.938,0.42-0.938,0.938V41.75
				H0.938C0.42,41.75,0,42.17,0,42.688v4.5c0,0.518,0.42,0.938,0.938,0.938h18.844c0.518,0,0.938-0.42,0.938-0.938
				s-0.42-0.938-0.938-0.938H1.875v-2.625h44.25v2.625H28.219c-0.518,0-0.938,0.42-0.938,0.938s0.42,0.938,0.938,0.938h18.844
				c0.518,0,0.938-0.42,0.938-0.938v-4.5C48,42.17,47.58,41.75,47.063,41.75L47.063,41.75z M12.531,2h22.938v2.438H12.531V2z
				 M23.063,41.75h-4.875v-5.625c0-2.886,2.114-5.286,4.875-5.735V41.75z M24.938,41.75V30.39c2.761,0.449,4.875,2.85,4.875,5.735
				v5.625H24.938z M31.688,41.75v-5.625c0-4.239-3.448-7.688-7.688-7.688s-7.688,3.448-7.688,7.688v5.625H4.688V6.313h38.625V41.75
				H31.688z"/>
			<path id="XMLID_825_" fill="#1C191A" d="M12.75,10.438h-4.5c-0.518,0-0.938,0.42-0.938,0.938v4.5c0,0.518,0.42,0.938,0.938,0.938
				h4.5c0.518,0,0.938-0.42,0.938-0.938v-4.5C13.688,10.857,13.268,10.438,12.75,10.438z M11.813,14.938H9.188v-2.625h2.625V14.938z
				"/>
			<path id="XMLID_828_" fill="#1C191A" d="M21.75,10.438h-4.5c-0.518,0-0.938,0.42-0.938,0.938v4.5c0,0.518,0.42,0.938,0.938,0.938
				h4.5c0.518,0,0.938-0.42,0.938-0.938v-4.5C22.688,10.857,22.268,10.438,21.75,10.438z M20.813,14.938h-2.625v-2.625h2.625V14.938
				z"/>
			<path id="XMLID_831_" fill="#1C191A" d="M30.75,10.438h-4.5c-0.518,0-0.938,0.42-0.938,0.938v4.5c0,0.518,0.42,0.938,0.938,0.938
				h4.5c0.518,0,0.938-0.42,0.938-0.938v-4.5C31.688,10.857,31.268,10.438,30.75,10.438z M29.813,14.938h-2.625v-2.625h2.625V14.938
				z"/>
			<path id="XMLID_834_" fill="#1C191A" d="M39.75,10.438h-4.5c-0.518,0-0.938,0.42-0.938,0.938v4.5c0,0.518,0.42,0.938,0.938,0.938
				h4.5c0.518,0,0.938-0.42,0.938-0.938v-4.5C40.688,10.857,40.268,10.438,39.75,10.438z M38.813,14.938h-2.625v-2.625h2.625V14.938
				z"/>
			<path id="XMLID_1471_" fill="#1C191A" d="M12.75,19.438h-4.5c-0.518,0-0.938,0.42-0.938,0.938v4.5
				c0,0.518,0.42,0.938,0.938,0.938h4.5c0.518,0,0.938-0.42,0.938-0.938v-4.5C13.688,19.857,13.268,19.438,12.75,19.438z
				 M11.813,23.938H9.188v-2.625h2.625V23.938z"/>
			<path id="XMLID_1482_" fill="#1C191A" d="M21.75,19.438h-4.5c-0.518,0-0.938,0.42-0.938,0.938v4.5
				c0,0.518,0.42,0.938,0.938,0.938h4.5c0.518,0,0.938-0.42,0.938-0.938v-4.5C22.688,19.857,22.268,19.438,21.75,19.438z
				 M20.813,23.938h-2.625v-2.625h2.625V23.938z"/>
			<path id="XMLID_1487_" fill="#1C191A" d="M30.75,19.438h-4.5c-0.518,0-0.938,0.42-0.938,0.938v4.5
				c0,0.518,0.42,0.938,0.938,0.938h4.5c0.518,0,0.938-0.42,0.938-0.938v-4.5C31.688,19.857,31.268,19.438,30.75,19.438z
				 M29.813,23.938h-2.625v-2.625h2.625V23.938z"/>
			<path id="XMLID_1490_" fill="#1C191A" d="M39.75,19.438h-4.5c-0.518,0-0.938,0.42-0.938,0.938v4.5
				c0,0.518,0.42,0.938,0.938,0.938h4.5c0.518,0,0.938-0.42,0.938-0.938v-4.5C40.688,19.857,40.268,19.438,39.75,19.438z
				 M38.813,23.938h-2.625v-2.625h2.625V23.938z"/>
			<path id="XMLID_632_" fill="#1C191A" d="M12.75,28.438h-4.5c-0.518,0-0.938,0.42-0.938,0.938v4.5c0,0.518,0.42,0.938,0.938,0.938
				h4.5c0.518,0,0.938-0.42,0.938-0.938v-4.5C13.688,28.857,13.268,28.438,12.75,28.438z M11.813,32.938H9.188v-2.625h2.625V32.938z
				"/>
			<path id="XMLID_1513_" fill="#1C191A" d="M39.75,28.438h-4.5c-0.518,0-0.938,0.42-0.938,0.938v4.5
				c0,0.518,0.42,0.938,0.938,0.938h4.5c0.518,0,0.938-0.42,0.938-0.938v-4.5C40.688,28.857,40.268,28.438,39.75,28.438z
				 M38.813,32.938h-2.625v-2.625h2.625V32.938z"/>
			<path id="XMLID_1522_" fill="#1C191A" d="M24,46.25c-0.247,0-0.488,0.101-0.663,0.274c-0.174,0.175-0.274,0.416-0.274,0.663
				s0.101,0.488,0.274,0.663c0.175,0.174,0.416,0.274,0.663,0.274s0.488-0.101,0.663-0.274c0.174-0.175,0.274-0.416,0.274-0.663
				s-0.101-0.488-0.274-0.663C24.488,46.351,24.247,46.25,24,46.25z"/>
		</g>
	</g>
</g>
</svg>
