<?xml version="1.0" encoding="utf-8"?>
<!-- Generator: Adobe Illustrator 16.0.0, SVG Export Plug-In . SVG Version: 6.00 Build 0)  -->
<!DOCTYPE svg PUBLIC "-//W3C//DTD SVG 1.1//EN" "http://www.w3.org/Graphics/SVG/1.1/DTD/svg11.dtd">
<svg version="1.1" id="Layer_1" xmlns="http://www.w3.org/2000/svg" xmlns:xlink="http://www.w3.org/1999/xlink" x="0px" y="0px"
	 width="48px" height="48px" viewBox="0 0 48 48" enable-background="new 0 0 48 48" xml:space="preserve">
<g>
	<polygon fill="#DEEAFC" points="2.413,22.125 2.413,37.779 21.668,37.779 21.67,37.781 30.502,31.264 30.502,22.125 	"/>
	<path fill="#7ACB00" d="M44.662,30.654c1.802,3.127,0.751,7.145-2.398,8.965l-5.459,3.154L30.25,31.408
		c7.287-4.211,5.005-2.893,5.459-3.154C38.844,26.441,42.853,27.516,44.662,30.654z"/>
	<path fill="#D6F2A5" d="M30.25,31.408l6.555,11.365l-5.893,3.408c-3.135,1.811-7.143,0.736-8.953-2.402
		c-1.821-3.168-0.712-7.164,2.398-8.965L30.25,31.408z"/>
	<path fill="#6C9DEA" d="M24.884,12.75l4.868,6.499c0.486,0.65,0.75,1.439,0.75,2.25v0.625H2.413v-0.625
		c0-0.811,0.263-1.6,0.749-2.25l4.869-6.499V9h16.853V12.75z"/>
	<path fill="#949393" d="M26.757,2.813v4.313C26.757,8.161,25.918,9,24.884,9H8.031C6.997,9,6.158,8.161,6.158,7.125V2.813
		c0-1.036,0.838-1.875,1.873-1.875h16.853C25.918,0.938,26.757,1.777,26.757,2.813z"/>
	<path fill="#6C9DEA" d="M21.67,37.781l-0.001-0.002H2.413v1.875c0,2.07,1.678,3.75,3.745,3.75h15.6h0.001L21.67,37.781z"/>
	<path fill="#1C191A" d="M11.8,13.688c0.517,0,0.936-0.42,0.936-0.938c0-0.517-0.419-0.937-0.936-0.937
		c-0.517,0-0.937,0.42-0.937,0.937C10.863,13.268,11.283,13.688,11.8,13.688z"/>
	<path fill="#1C191A" d="M20.226,29.342h-2.809v-2.813c0-0.516-0.419-0.936-0.936-0.936s-0.937,0.42-0.937,0.936v2.813h-2.808
		c-0.517,0-0.937,0.42-0.937,0.938s0.419,0.938,0.937,0.938h2.808v2.813c0,0.518,0.419,0.938,0.937,0.938s0.936-0.42,0.936-0.938
		v-2.813h2.809c0.517,0,0.936-0.42,0.936-0.938S20.743,29.342,20.226,29.342z"/>
	<path fill="#1C191A" d="M35.264,27.441l-3.803,2.199v-8.142c0-1.006-0.332-2.005-0.936-2.813l-4.682-6.249V9.776
		c1.09-0.387,1.873-1.429,1.873-2.651V2.813c0-1.55-1.26-2.813-2.809-2.813H8.054C6.506,0,5.246,1.263,5.246,2.813v4.313
		c0,1.222,0.783,2.264,1.873,2.651v2.662l-4.682,6.25C1.833,19.494,1.5,20.493,1.5,21.499v18.155c0,2.584,2.101,4.688,4.682,4.688
		h15.047c2.1,3.523,6.626,4.703,10.174,2.65l11.352-6.563c3.554-2.053,4.821-6.635,2.741-10.244
		C43.427,26.596,38.85,25.369,35.264,27.441z M21.118,36.842H3.373v-13.78h26.216v7.661l-5.676,3.281
		C22.729,34.688,21.773,35.662,21.118,36.842z M7.118,2.813c0-0.517,0.42-0.938,0.936-0.938h16.854c0.516,0,0.936,0.42,0.936,0.938
		v4.313c0,0.517-0.42,0.938-0.936,0.938H8.054c-0.516,0-0.936-0.421-0.936-0.938V2.813z M8.804,13.313
		c0.121-0.162,0.187-0.36,0.187-0.563V9.938h14.98v1.875h-8.427c-0.517,0-0.936,0.42-0.936,0.938c0,0.518,0.419,0.938,0.936,0.938
		h8.895l4.588,6.124c0.299,0.401,0.485,0.88,0.541,1.376H3.393c0.056-0.496,0.243-0.975,0.542-1.375L8.804,13.313z M3.373,39.654
		v-0.947h17.011c-0.297,1.217-0.295,2.514,0.045,3.76H6.182C4.633,42.467,3.373,41.205,3.373,39.654z M30.467,45.369
		c-2.687,1.553-6.12,0.635-7.673-2.057c-1.56-2.719-0.614-6.141,2.056-7.686l5.083-2.938l5.617,9.742L30.467,45.369z M41.818,38.807
		l-4.647,2.688l-5.617-9.742l4.647-2.688c2.688-1.555,6.121-0.633,7.674,2.059C45.434,33.83,44.486,37.266,41.818,38.807z"/>
</g>
</svg>
