<?xml version="1.0" encoding="utf-8"?>
<!-- Generator: Adobe Illustrator 16.0.0, SVG Export Plug-In . SVG Version: 6.00 Build 0)  -->
<!DOCTYPE svg PUBLIC "-//W3C//DTD SVG 1.1//EN" "http://www.w3.org/Graphics/SVG/1.1/DTD/svg11.dtd">
<svg version="1.1" id="Layer_1" xmlns="http://www.w3.org/2000/svg" xmlns:xlink="http://www.w3.org/1999/xlink" x="0px" y="0px"
	 width="48px" height="48px" viewBox="0 0 48 48" enable-background="new 0 0 48 48" xml:space="preserve">
<g>
	<g>
		<g>
			<g>
				<path fill="#CE9DFC" d="M13.076,16.058c-0.155,0.157-0.412,0.153-0.562-0.01c-3.291-3.592-3.198-9.175,0.28-12.655
					c3.479-3.479,9.059-3.573,12.651-0.28c0.16,0.149,0.164,0.406,0.009,0.562L13.076,16.058z"/>
			</g>
		</g>
		<path fill="#DEEAFC" d="M33.806,46.588l-4.08-2.057c-0.349-0.176-0.567-0.531-0.567-0.922v-9.541c0-0.756-0.582-1.408-1.336-1.443
			c-0.806-0.038-1.471,0.605-1.471,1.404v9.58c0,0.391-0.219,0.746-0.566,0.922l-4.084,2.057c-0.351,0.177-0.225,0.709,0.17,0.709
			h11.768C34.033,47.297,34.159,46.765,33.806,46.588L33.806,46.588z"/>
		<path fill="#DEEAFC" d="M37.003,9.832l0.278-0.814c0.103-0.301-0.12-0.614-0.438-0.614H18.457c-0.315,0-0.541,0.311-0.438,0.612
			l0.383,1.135c1.088,3.236,0.839,6.753-0.597,9.852c-0.64,1.384-0.996,2.923-0.996,4.545c0,6.012,4.901,10.887,10.946,10.887
			s10.946-4.875,10.946-10.887c0-1.666-0.377-3.245-1.052-4.657C36.146,16.739,35.878,13.137,37.003,9.832L37.003,9.832z"/>
		<path fill="#DCEAFC" d="M37.649,19.891c-1.503-3.152-1.771-6.754-0.646-10.059l0.278-0.814c0.103-0.301-0.12-0.614-0.438-0.614
			h-2.804c0.316,0,0.541,0.313,0.436,0.614L34.2,9.832c-1.128,3.305-0.859,6.907,0.646,10.059c0.672,1.411,1.049,2.991,1.049,4.657
			c0,5.541-4.159,10.114-9.544,10.798c0.459,0.059,0.927,0.089,1.403,0.089c6.045,0,10.946-4.875,10.946-10.887
			C38.701,22.882,38.324,21.303,37.649,19.891L37.649,19.891z"/>
		<path fill="#CE9DFC" d="M33.508,14.537c-0.006-0.244-0.199-0.439-0.444-0.453c-0.541-0.03-1.114-0.016-1.71,0.065
			c-2.318,0.312-3.233,1.365-5.227,1.837c-0.953,0.226-2.213,0.333-3.816-0.009c-0.267-0.057-0.526,0.125-0.562,0.397
			c-0.214,1.64-0.682,3.261-1.397,4.813c-0.488,1.057-0.737,2.187-0.737,3.363c0,4.453,3.651,8.074,8.141,8.074
			c4.49,0,8.141-3.621,8.141-8.074c0-1.208-0.26-2.366-0.777-3.446C34.115,19.003,33.578,16.771,33.508,14.537z"/>
	</g>
	<path fill="#1C191A" d="M39.403,24.548c0-1.735-0.377-3.404-1.12-4.96c-1.452-3.047-1.672-6.431-0.616-9.528
		c0.216-0.634,0.559-1.263,0.123-1.871c-0.217-0.306-0.573-0.488-0.947-0.488h-5.809l0.465-2.275c0.073-0.35,0.275-0.654,0.57-0.855
		l4.817-3.277c0.321-0.218,0.403-0.655,0.187-0.977c-0.216-0.321-0.654-0.405-0.973-0.187l-4.817,3.277
		c-0.6,0.408-1.012,1.024-1.157,1.735l-0.523,2.558h-7.179l3.524-3.527c0.211-0.209,0.328-0.5,0.322-0.798
		c-0.006-0.296-0.135-0.582-0.354-0.781c-3.896-3.573-9.877-3.441-13.619,0.301v0c0,0,0,0,0,0.001l0,0
		C8.557,6.64,8.425,12.625,12,16.525c0.199,0.216,0.482,0.344,0.777,0.35c0.007,0,0.015,0,0.021,0c0.289,0,0.569-0.115,0.773-0.319
		l4.584-4.584c0.491,2.569,0.157,5.263-0.987,7.735c-0.27,0.585-0.492,1.196-0.661,1.816c-0.102,0.375,0.119,0.761,0.493,0.863
		c0.374,0.102,0.761-0.119,0.86-0.494c0.148-0.544,0.345-1.08,0.581-1.594c1.463-3.161,1.731-6.653,0.774-9.89
		c-0.094-0.319-0.315-0.977-0.427-1.303c0.272-0.066,10.23,0.07,10.522,0l-1.09,5.312c-0.73,0.347-1.377,0.676-2.257,0.885
		c-1.102,0.261-2.25,0.256-3.507-0.013c-0.319-0.068-0.655,0.001-0.921,0.189c-0.267,0.188-0.441,0.481-0.484,0.805
		c-0.206,1.582-0.656,3.132-1.34,4.608c-0.532,1.151-0.801,2.382-0.801,3.658c0,4.839,3.967,8.777,8.842,8.777
		c4.876,0,8.842-3.938,8.842-8.777c0-1.313-0.283-2.575-0.845-3.75c-0.172-0.359-0.333-0.729-0.476-1.098
		c-0.141-0.361-0.547-0.541-0.909-0.398c-0.359,0.141-0.538,0.548-0.397,0.91c0.157,0.401,0.33,0.802,0.517,1.193
		c0.471,0.983,0.708,2.041,0.708,3.142c0,4.064-3.338,7.371-7.439,7.371c-4.103,0-7.438-3.307-7.438-7.371
		c0-1.07,0.225-2.102,0.67-3.067c0.706-1.528,1.186-3.13,1.426-4.768c1.355,0.259,2.659,0.244,3.876-0.044
		c0.604-0.143,1.114-0.334,1.584-0.539l-1.971,9.602c-0.077,0.38,0.167,0.752,0.547,0.83c0.047,0.011,0.095,0.015,0.142,0.015
		c0.326,0,0.618-0.229,0.686-0.563l2.178-10.613c0.573-0.243,1.189-0.448,1.99-0.557c0.45-0.06,0.909-0.083,1.371-0.069
		c0.032,0.717,0.111,1.438,0.234,2.147c0.067,0.383,0.43,0.639,0.813,0.572c0.383-0.067,0.637-0.431,0.57-0.813
		c-0.126-0.716-0.199-1.445-0.223-2.167c-0.018-0.612-0.494-1.099-1.104-1.134c-0.62-0.034-1.242-0.01-1.845,0.071
		c-0.559,0.075-1.041,0.189-1.474,0.327l0.959-4.674h5.765l-0.17,0.499c-1.175,3.447-0.936,7.208,0.678,10.588
		C37.67,21.56,38,23.025,38,24.548c0,5.616-4.595,10.184-10.245,10.184c-2.669,0-5.197-1.016-7.117-2.858
		c-1.912-1.837-3.021-4.301-3.121-6.938c-0.015-0.387-0.337-0.688-0.726-0.676c-0.389,0.015-0.69,0.341-0.676,0.729
		c0.114,3.003,1.374,5.809,3.552,7.899c1.669,1.603,3.744,2.653,5.983,3.06v7.66c0,0.125-0.07,0.237-0.182,0.293l-4.08,2.057
		c-0.447,0.226-0.68,0.724-0.564,1.211c0.114,0.488,0.545,0.83,1.047,0.83h11.768c0.5,0,0.933-0.342,1.047-0.83
		c0.117-0.487-0.117-0.985-0.564-1.211l-4.08-2.057c-0.113-0.056-0.182-0.168-0.182-0.293v-7.661
		C35.281,34.96,39.403,30.225,39.403,24.548L39.403,24.548z M12.815,4.408l4.391,4.39l0.044,0.134l-6.279-0.706
		C11.243,6.854,11.859,5.536,12.815,4.408z M12.815,15.327c-1.397-1.646-2.061-3.685-2.002-5.703l6.925,0.778L12.815,15.327z
		 M18.093,7.701L13.81,3.415c1.128-0.957,2.444-1.573,3.817-1.846l0.689,6.131H18.093L18.093,7.701z M20.438,7.701h-0.71
		l-0.707-6.289c2.02-0.059,4.057,0.604,5.702,2.001L20.438,7.701z M32.26,46.594h-9.009l2.85-1.435
		c0.588-0.296,0.953-0.89,0.953-1.55v-7.493c0.231,0.015,0.466,0.022,0.701,0.022s0.468-0.008,0.702-0.022v7.493
		c0,0.659,0.363,1.252,0.952,1.55L32.26,46.594z"/>
</g>
</svg>
