<?xml version="1.0" encoding="utf-8"?>
<!-- Generator: Adobe Illustrator 16.0.0, SVG Export Plug-In . SVG Version: 6.00 Build 0)  -->
<!DOCTYPE svg PUBLIC "-//W3C//DTD SVG 1.1//EN" "http://www.w3.org/Graphics/SVG/1.1/DTD/svg11.dtd">
<svg version="1.1" id="Layer_1" xmlns="http://www.w3.org/2000/svg" xmlns:xlink="http://www.w3.org/1999/xlink" x="0px" y="0px"
	 width="48px" height="48px" viewBox="0 0 48 48" enable-background="new 0 0 48 48" xml:space="preserve">
<g>
	<path fill="#CCED91" d="M11.442,41.059c0,1.656-1.344,3-3,3c-1.657,0-3-1.344-3-3c0-1.658,1.343-3,3-3
		C10.099,38.059,11.442,39.4,11.442,41.059z"/>
	<path fill="#8BEFEC" d="M37.579,21.06c-0.357-1.662-1.012-3.214-1.906-4.597l1.797-1.796l-4.147-4.144l-1.794,1.794
		c-1.383-0.894-2.935-1.547-4.598-1.904V7.875h-5.861v2.539c-1.663,0.357-3.215,1.011-4.598,1.904l-1.794-1.794l-4.147,4.144
		l1.797,1.796c-0.895,1.383-1.549,2.935-1.906,4.597H7.876l-0.002,5.862h2.547c0.357,1.663,1.012,3.215,1.906,4.598l-1.804,1.804
		l4.144,4.146l1.805-1.805c1.383,0.895,2.935,1.549,4.598,1.906v2.555h5.861V37.57c1.663-0.357,3.215-1.012,4.599-1.906l1.805,1.805
		l4.143-4.146l-1.804-1.804c0.895-1.383,1.549-2.935,1.906-4.598h2.547V21.06H37.579z M24,30.809c-3.761,0-6.809-3.049-6.809-6.809
		c0-3.76,3.048-6.809,6.809-6.809S30.809,20.24,30.809,24C30.809,27.76,27.761,30.809,24,30.809z"/>
	<g>
		<path fill="#1C191A" d="M31.746,24c0-4.271-3.475-7.746-7.746-7.746S16.254,19.729,16.254,24s3.475,7.746,7.746,7.746
			S31.746,28.271,31.746,24z M18.129,24c0-3.237,2.634-5.871,5.871-5.871s5.871,2.634,5.871,5.871S27.237,29.871,24,29.871
			S18.129,27.237,18.129,24z"/>
		<g>
			<path fill="#1C191A" d="M8.442,37.121c-0.673,0-1.317,0.166-1.892,0.481C3.532,33.732,1.875,28.925,1.875,24
				C1.875,11.8,11.801,1.875,24,1.875c1.482,0,2.965,0.148,4.406,0.438c0.507,0.103,1.002-0.226,1.104-0.733
				s-0.226-1.002-0.732-1.104C27.216,0.16,25.608,0,24,0C17.59,0,11.562,2.496,7.03,7.03C2.496,11.562,0,17.59,0,24
				c0,5.393,1.831,10.655,5.165,14.874c-0.43,0.641-0.66,1.395-0.66,2.185c0,1.051,0.41,2.04,1.154,2.783
				c0.742,0.744,1.73,1.154,2.783,1.154c1.051,0,2.04-0.41,2.784-1.154c0.744-0.743,1.153-1.732,1.153-2.784
				s-0.409-2.041-1.153-2.784C10.482,37.529,9.493,37.121,8.442,37.121z M9.901,42.516c-0.391,0.39-0.908,0.605-1.459,0.605
				s-1.068-0.216-1.458-0.605S6.38,41.609,6.38,41.059c0-0.552,0.215-1.07,0.604-1.459c0.39-0.391,0.907-0.604,1.458-0.604
				s1.068,0.213,1.459,0.604c0.389,0.389,0.604,0.907,0.604,1.459C10.505,41.609,10.29,42.126,9.901,42.516z"/>
			<path fill="#1C191A" d="M42.835,9.125c1.02-1.528,0.855-3.619-0.492-4.967c-0.744-0.744-1.732-1.154-2.785-1.154
				c-1.051,0-2.04,0.41-2.784,1.154C36.029,4.901,35.62,5.89,35.62,6.942s0.409,2.041,1.153,2.785s1.733,1.153,2.784,1.153
				c0.673,0,1.317-0.167,1.892-0.482c3.019,3.87,4.676,8.678,4.676,13.603c0,12.2-9.926,22.125-22.125,22.125
				c-1.468,0-2.937-0.145-4.364-0.431c-0.508-0.101-1.002,0.229-1.103,0.735c-0.103,0.508,0.228,1.002,0.735,1.104
				C20.815,47.844,22.407,48,24,48c6.41,0,12.438-2.496,16.97-7.029C45.504,36.438,48,30.41,48,24
				C48,18.607,46.169,13.345,42.835,9.125z M38.099,8.401c-0.389-0.39-0.604-0.908-0.604-1.459c0-0.551,0.215-1.068,0.604-1.458
				c0.391-0.39,0.908-0.605,1.459-0.605s1.068,0.215,1.458,0.605c0.804,0.804,0.804,2.112,0,2.917
				c-0.39,0.39-0.907,0.604-1.458,0.604C39.006,9.004,38.489,8.791,38.099,8.401z"/>
			<path fill="#1C191A" d="M20.132,40.125c0,0.518,0.42,0.938,0.938,0.938h5.861c0.518,0,0.938-0.42,0.938-0.938v-1.818
				c1.232-0.33,2.412-0.82,3.52-1.457l1.283,1.283c0.176,0.176,0.414,0.273,0.663,0.273c0.247,0,0.486-0.098,0.662-0.274
				l4.143-4.146c0.366-0.367,0.366-0.96,0-1.326l-1.28-1.281c0.637-1.107,1.125-2.286,1.457-3.52h1.811
				c0.518,0,0.938-0.419,0.938-0.938V21.06c0-0.517-0.42-0.938-0.938-0.938h-1.811c-0.332-1.232-0.82-2.411-1.457-3.518l1.274-1.275
				c0.176-0.176,0.274-0.415,0.274-0.663c0-0.249-0.099-0.487-0.274-0.663L33.985,9.86c-0.365-0.366-0.959-0.366-1.325,0
				l-1.272,1.274c-1.107-0.639-2.287-1.126-3.52-1.459v-1.8c0-0.518-0.42-0.938-0.938-0.938h-5.861c-0.518,0-0.938,0.42-0.938,0.938
				v1.801c-1.232,0.332-2.412,0.82-3.52,1.458L15.34,9.86c-0.366-0.365-0.96-0.366-1.325,0l-4.147,4.144
				c-0.176,0.176-0.274,0.415-0.274,0.663c0,0.248,0.099,0.487,0.274,0.663l1.274,1.275c-0.637,1.107-1.125,2.286-1.457,3.518H7.876
				c-0.517,0-0.938,0.42-0.938,0.938l-0.002,5.862c0,0.249,0.098,0.487,0.273,0.663s0.414,0.274,0.664,0.274h1.811
				c0.332,1.233,0.82,2.412,1.457,3.52l-1.28,1.281c-0.366,0.366-0.366,0.959,0,1.326l4.143,4.146
				c0.176,0.176,0.415,0.274,0.662,0.274h0.001c0.248,0,0.486-0.098,0.662-0.273l1.283-1.283c1.107,0.637,2.287,1.127,3.52,1.457
				V40.125z M16.98,34.878c-0.37-0.24-0.858-0.188-1.172,0.124l-1.142,1.142l-2.818-2.819l1.142-1.142
				c0.312-0.312,0.363-0.801,0.123-1.172c-0.85-1.315-1.447-2.757-1.775-4.285c-0.093-0.432-0.475-0.741-0.917-0.741H8.812
				l0.002-3.987h1.607c0.442,0,0.824-0.308,0.917-0.74c0.328-1.528,0.926-2.971,1.775-4.286c0.24-0.371,0.188-0.858-0.123-1.171
				l-1.134-1.133l2.82-2.818l1.132,1.132c0.313,0.312,0.8,0.364,1.172,0.125c1.315-0.85,2.757-1.447,4.286-1.775
				c0.431-0.094,0.74-0.475,0.74-0.917V8.813h3.986v1.601c0,0.442,0.309,0.823,0.74,0.917c1.529,0.329,2.971,0.926,4.286,1.776
				c0.37,0.24,0.858,0.188,1.172-0.125l1.131-1.132l2.821,2.818L35.01,15.8c-0.312,0.313-0.363,0.801-0.124,1.172
				c0.851,1.315,1.447,2.758,1.776,4.286c0.093,0.432,0.475,0.74,0.915,0.74h1.611v3.987h-1.611c-0.44,0-0.822,0.31-0.915,0.741
				c-0.328,1.528-0.926,2.97-1.776,4.285c-0.239,0.371-0.188,0.86,0.124,1.172l1.142,1.141l-2.818,2.82l-1.142-1.142
				c-0.313-0.313-0.802-0.364-1.172-0.124c-1.315,0.85-2.757,1.447-4.286,1.775c-0.432,0.093-0.74,0.475-0.74,0.917v1.617h-3.986
				V37.57c0-0.442-0.31-0.824-0.74-0.917C19.737,36.325,18.296,35.728,16.98,34.878z"/>
			<path fill="#1C191A" d="M32.632,3.546c0.248,0,0.488-0.101,0.664-0.275c0.173-0.176,0.273-0.417,0.273-0.664
				s-0.1-0.488-0.273-0.664C33.12,1.77,32.88,1.67,32.632,1.67c-0.247,0-0.487,0.1-0.662,0.274
				c-0.174,0.176-0.275,0.417-0.275,0.664c0,0.248,0.102,0.488,0.275,0.664C32.145,3.445,32.385,3.546,32.632,3.546z"/>
			<path fill="#1C191A" d="M15.409,44.471c-0.246,0-0.488,0.101-0.664,0.275c-0.173,0.174-0.273,0.416-0.273,0.662
				c0,0.248,0.101,0.489,0.273,0.663c0.176,0.175,0.418,0.274,0.664,0.274s0.487-0.1,0.663-0.274
				c0.173-0.174,0.274-0.417,0.274-0.663s-0.102-0.488-0.274-0.662C15.896,44.571,15.655,44.471,15.409,44.471z"/>
		</g>
	</g>
</g>
</svg>
