<?xml version="1.0" encoding="utf-8"?>
<!-- Generator: Adobe Illustrator 16.0.0, SVG Export Plug-In . SVG Version: 6.00 Build 0)  -->
<!DOCTYPE svg PUBLIC "-//W3C//DTD SVG 1.1//EN" "http://www.w3.org/Graphics/SVG/1.1/DTD/svg11.dtd">
<svg version="1.1" id="Layer_1" xmlns="http://www.w3.org/2000/svg" xmlns:xlink="http://www.w3.org/1999/xlink" x="0px" y="0px"
	 width="48px" height="48px" viewBox="0 0 48 48" enable-background="new 0 0 48 48" xml:space="preserve">
<g>
	<g>
		<path fill="#F9E48F" d="M9.877,14.839H3.396c-1.434,0-2.597,1.157-2.597,2.585v29.28h6.4V17.506
			C7.2,16.032,8.399,14.839,9.877,14.839"/>
	</g>
	<polygon fill="#F9E48F" points="47.199,46.704 21.6,46.704 24.799,32.364 44,32.364 	"/>
	<path fill="#FFD014" d="M34.4,32.364v-14.94c0-1.428-1.162-2.585-2.598-2.585H9.877c-1.479,0-2.678,1.193-2.678,2.667v29.198h14.4
		l3.2-14.34H34.4z"/>
	<g>
		<path fill="#1C191A" d="M1.6,45.907h4.8V17.506c0-0.688,0.202-1.331,0.552-1.87H3.397c-0.99,0-1.797,0.803-1.797,1.789V45.907z
			 M7.2,47.5H0.8c-0.441,0-0.8-0.356-0.8-0.796v-29.28c0-1.864,1.524-3.382,3.397-3.382h6.48c0.442,0,0.8,0.357,0.8,0.797
			c0,0.439-0.358,0.796-0.8,0.796C8.843,15.636,8,16.475,8,17.506v29.198C8,47.144,7.642,47.5,7.2,47.5L7.2,47.5z"/>
		<path fill="#1C191A" d="M28.801,22.805c-0.441,0-0.801-0.357-0.801-0.797V9.263c0-3.953-3.23-7.169-7.2-7.169
			c-3.969,0-7.2,3.216-7.2,7.169v12.745c0,0.44-0.358,0.797-0.8,0.797c-0.441,0-0.8-0.357-0.8-0.797V9.263
			C12,4.431,15.948,0.5,20.8,0.5c4.853,0,8.8,3.931,8.8,8.763v12.745C29.6,22.448,29.242,22.805,28.801,22.805"/>
		<path fill="#1C191A" d="M20,15.636c-0.441,0-0.8-0.357-0.8-0.796v-3.187c0-3.953-3.23-7.17-7.2-7.17S4.8,7.7,4.8,11.653v3.187
			c0,0.439-0.359,0.796-0.8,0.796c-0.442,0-0.8-0.357-0.8-0.796v-3.187C3.2,6.821,7.148,2.89,12,2.89s8.8,3.931,8.8,8.763v3.187
			C20.8,15.279,20.442,15.636,20,15.636"/>
		<path fill="#1C191A" d="M22.597,45.907h23.606l-2.846-12.746H25.441L22.597,45.907z M47.199,47.5H21.6
			c-0.242,0-0.472-0.11-0.624-0.299c-0.151-0.188-0.209-0.435-0.157-0.671l3.2-14.338c0.081-0.365,0.406-0.625,0.78-0.625H44
			c0.375,0,0.699,0.26,0.779,0.625L47.98,46.53c0.053,0.236-0.004,0.482-0.156,0.671C47.674,47.39,47.443,47.5,47.199,47.5
			L47.199,47.5z"/>
		<path fill="#1C191A" d="M40,39.533c-0.441,0-0.799-0.356-0.799-0.796v-8.763c0-2.636-2.154-4.779-4.801-4.779
			S29.6,27.339,29.6,29.975v8.763c0,0.439-0.357,0.796-0.799,0.796S28,39.177,28,38.737v-8.763c0-3.514,2.871-6.373,6.4-6.373
			s6.4,2.859,6.4,6.373v8.763C40.801,39.177,40.441,39.533,40,39.533"/>
		<path fill="#1C191A" d="M8,45.907h12.958l3.061-13.715c0.081-0.365,0.406-0.625,0.781-0.625h8.801V17.424
			c0-0.986-0.809-1.789-1.799-1.789H9.877C8.843,15.636,8,16.475,8,17.506V45.907z M21.6,47.5H7.2c-0.441,0-0.8-0.356-0.8-0.796
			V17.506c0-1.91,1.56-3.463,3.478-3.463h21.925c1.875,0,3.398,1.517,3.398,3.381v14.94c0,0.439-0.359,0.797-0.801,0.797h-8.959
			L22.38,46.876C22.3,47.24,21.976,47.5,21.6,47.5L21.6,47.5z"/>
	</g>
</g>
</svg>
