<?xml version="1.0" encoding="utf-8"?>
<!-- Generator: Adobe Illustrator 16.0.0, SVG Export Plug-In . SVG Version: 6.00 Build 0)  -->
<!DOCTYPE svg PUBLIC "-//W3C//DTD SVG 1.1//EN" "http://www.w3.org/Graphics/SVG/1.1/DTD/svg11.dtd">
<svg version="1.1" id="Layer_1" xmlns="http://www.w3.org/2000/svg" xmlns:xlink="http://www.w3.org/1999/xlink" x="0px" y="0px"
	 width="740px" height="270px" viewBox="0 0 740 270" enable-background="new 0 0 740 270" xml:space="preserve">
<g>
	<g>
		<path fill="#F6F5F5" d="M429.257,245.73v5.058c0,0.164,0.067,0.321,0.184,0.433c0.117,0.113,0.276,0.174,0.435,0.159l2.819-0.187
			l-1.3,18.172c-0.012,0.164,0.044,0.324,0.154,0.447c0.11,0.121,0.264,0.188,0.425,0.188h11.697h0.002h18.003h0.002h20.446h0.002
			h41.423h0.003h20.446H544h18.007h0.002h7.589c0.171,0,0.334-0.078,0.444-0.211c0.109-0.135,0.157-0.313,0.127-0.484l-2.998-17.408
			l2.305,0.506c0.04,0.008,0.081,0.013,0.122,0.013c0.131,0,0.261-0.046,0.365-0.132c0.135-0.113,0.215-0.282,0.215-0.461v-4.827
			c0-0.285-0.199-0.53-0.473-0.583c-0.057-0.012-1.097-0.211-2.928-0.525c0.023-0.084,0.033-0.175,0.017-0.266l-3.088-16.881
			l1.126,0.318c0.051,0.014,0.103,0.021,0.154,0.021c0.138,0,0.271-0.051,0.378-0.143c0.146-0.131,0.222-0.326,0.197-0.521
			l-0.561-4.826c-0.024-0.208-0.152-0.386-0.337-0.471c-0.262-0.122-26.472-12.057-64.57-13.262l-3.504-7.826
			c-0.001-0.004-0.006-0.006-0.008-0.01s-0.002-0.01-0.004-0.015l-2.024-4.022c-0.104-0.211-0.314-0.342-0.557-0.32
			c-0.417,0.031-0.815,0.064-1.228,0.095l-5.961-13.538c-0.096-0.221-0.312-0.361-0.545-0.352
			c-0.25,0.008-25.304,0.811-41.661,10.89c-0.141,0.087-0.237,0.231-0.27,0.396l-2.425,12.586c-1.902,0.854-2.807,1.424-2.939,1.511
			c-0.168,0.108-0.269,0.298-0.269,0.501v4.023c0,0.188,0.089,0.367,0.237,0.479c0.102,0.075,0.222,0.114,0.344,0.114
			c0.059,0,0.117-0.009,0.176-0.027l1.527-0.497l-2.682,13.206c-1.54,0.46-2.331,0.75-2.371,0.765
			c-0.201,0.078-0.345,0.261-0.374,0.478l-2.2,16.366c-2.264,0.289-3.538,0.474-3.604,0.484
			C429.467,245.184,429.255,245.434,429.257,245.73z"/>
		<g>
			<path fill="none" stroke="#3C3C3A" stroke-linecap="round" stroke-linejoin="round" stroke-miterlimit="10" d="M566.449,251.13
				c0,0-28.674-5.401-66.228-5.401s-66.899,4.826-66.899,4.826l-1.351,18.852h137.624L566.449,251.13z"/>
			<path fill="none" stroke="#3C3C3A" stroke-linecap="round" stroke-linejoin="round" stroke-miterlimit="10" d="M433.322,250.557
				l-3.486,0.231v-5.058c0,0,34.743-5.059,70.948-5.059s68.812,6.321,68.812,6.321v4.827l-3.147-0.689"/>
			<path fill="none" stroke="#3C3C3A" stroke-linecap="round" stroke-linejoin="round" stroke-miterlimit="10" d="M433.874,245.186
				l2.258-16.813c0,0,20.801-7.815,63.583-7.815c42.783,0,63.247,7.355,63.247,7.355l3.26,17.816"/>
			<path fill="none" stroke="#3C3C3A" stroke-linecap="round" stroke-linejoin="round" stroke-miterlimit="10" d="M438.8,227.512
				l2.954-14.543c10.006-6.32,54.307-10.689,54.307-10.689l3.654,8.162c38.622,1.148,64.708,13.218,64.708,13.218l0.563,4.827
				l-2.023-0.574"/>
			<path fill="none" stroke="#3C3C3A" stroke-linecap="round" stroke-linejoin="round" stroke-miterlimit="10" d="M496.061,202.279
				l-2.023-4.021c-41.714,2.989-54.757,11.495-54.757,11.495v4.022l2.474-0.805"/>
			<path fill="none" stroke="#3C3C3A" stroke-linecap="round" stroke-linejoin="round" stroke-miterlimit="10" d="M442.412,208.182
				l2.488-12.912c16.417-10.117,41.378-10.806,41.378-10.806l6.072,13.793"/>
			<path fill="none" stroke="#3C3C3A" stroke-linecap="round" stroke-linejoin="round" stroke-miterlimit="10" d="M443.99,200.82
				c13.028-10.096,43.732-12.26,43.732-12.26"/>
			<path fill="none" stroke="#3C3C3A" stroke-linecap="round" stroke-linejoin="round" stroke-miterlimit="10" d="M523.552,269.406
				c0,0,0.086-16.867-9.191-16.867c-9.276,0-7.927,16.867-7.927,16.867"/>
			<path fill="none" stroke="#3C3C3A" stroke-linecap="round" stroke-linejoin="round" stroke-miterlimit="10" d="M544,269.406
				c0,0,0.071-14.885-7.688-14.885c-7.759,0-6.63,14.885-6.63,14.885"/>
			<path fill="none" stroke="#3C3C3A" stroke-linecap="round" stroke-linejoin="round" stroke-miterlimit="10" d="M562.006,269.406
				c0,0,0.054-12.471-5.964-12.471c-6.019,0-5.143,12.471-5.143,12.471"/>
			<path fill="none" stroke="#3C3C3A" stroke-linecap="round" stroke-linejoin="round" stroke-miterlimit="10" d="M523.5,241.432
				c0,0,0.137-15.318-9.14-15.318c-9.275,0-7.994,14.559-7.994,14.559"/>
			<path fill="none" stroke="#3C3C3A" stroke-linecap="round" stroke-linejoin="round" stroke-miterlimit="10" d="M544,243.266
				c0,0,0.072-14.41-7.688-14.41c-7.76,0-6.688,13.019-6.688,13.019"/>
			<path fill="none" stroke="#3C3C3A" stroke-linecap="round" stroke-linejoin="round" stroke-miterlimit="10" d="M561.039,243.74
				c0,0,0.054-12.473-5.964-12.473c-6.019,0-5.144,12.473-5.144,12.473"/>
			<path fill="none" stroke="#3C3C3A" stroke-linecap="round" stroke-linejoin="round" stroke-miterlimit="10" d="M482.124,269.406
				c0,0-0.085-16.867,9.191-16.867c9.277,0,7.928,16.867,7.928,16.867"/>
			<path fill="none" stroke="#3C3C3A" stroke-linecap="round" stroke-linejoin="round" stroke-miterlimit="10" d="M461.675,269.406
				c0,0-0.07-14.885,7.689-14.885c7.759,0,6.631,14.885,6.631,14.885"/>
			<path fill="none" stroke="#3C3C3A" stroke-linecap="round" stroke-linejoin="round" stroke-miterlimit="10" d="M443.67,269.406
				c0,0-0.055-12.471,5.963-12.471s5.143,12.471,5.143,12.471"/>
			<path fill="none" stroke="#3C3C3A" stroke-linecap="round" stroke-linejoin="round" stroke-miterlimit="10" d="M482.191,240.672
				c0,0-0.151-14.559,9.124-14.559c9.276,0,7.995,14.559,7.995,14.559"/>
			<path fill="none" stroke="#3C3C3A" stroke-linecap="round" stroke-linejoin="round" stroke-miterlimit="10" d="M461.702,242.329
				c0,0-0.099-13.474,7.662-13.474c7.76,0,6.738,11.816,6.738,11.816"/>
			<path fill="none" stroke="#3C3C3A" stroke-linecap="round" stroke-linejoin="round" stroke-miterlimit="10" d="M444.637,243.74
				c0,0-0.055-12.473,5.964-12.473s5.188,11.558,5.188,11.558"/>
			<path fill="none" stroke="#3C3C3A" stroke-linecap="round" stroke-linejoin="round" stroke-miterlimit="10" d="M482.192,220.557
				c0,0-0.889-11.896,4.762-11.896c5.649,0,5.396,11.896,5.396,11.896"/>
			<path fill="none" stroke="#3C3C3A" stroke-linecap="round" stroke-linejoin="round" stroke-miterlimit="10" d="M463.769,221.332
				c0,0-0.895-10.861,4.799-10.861c5.694,0,5.439,10.861,5.439,10.861"/>
			<path fill="none" stroke="#3C3C3A" stroke-linecap="round" stroke-linejoin="round" stroke-miterlimit="10" d="M448.006,223.995
				c0,0-2.019-9.466,3.165-10.146c5.181-0.681,6.152,8.92,6.152,8.92"/>
			
				<line fill="none" stroke="#3C3C3A" stroke-linecap="round" stroke-linejoin="round" stroke-miterlimit="10" x1="483.688" y1="199.164" x2="483.244" y2="193.486"/>
			
				<line fill="none" stroke="#3C3C3A" stroke-linecap="round" stroke-linejoin="round" stroke-miterlimit="10" x1="473.653" y1="200.299" x2="473.209" y2="194.621"/>
			
				<line fill="none" stroke="#3C3C3A" stroke-linecap="round" stroke-linejoin="round" stroke-miterlimit="10" x1="464.697" y1="201.945" x2="464.25" y2="196.27"/>
			
				<line fill="none" stroke="#3C3C3A" stroke-linecap="round" stroke-linejoin="round" stroke-miterlimit="10" x1="455.63" y1="203.579" x2="455.27" y2="198.952"/>
			
				<line fill="none" stroke="#3C3C3A" stroke-linecap="round" stroke-linejoin="round" stroke-miterlimit="10" x1="449.063" y1="205.447" x2="448.739" y2="201.619"/>
		</g>
	</g>
	<g>
		<path fill="#F6F5F5" d="M679.722,214.965h1.643c-0.073,0.1-0.124,0.217-0.124,0.35v15.627h-3.11c-0.321,0-0.581,0.265-0.581,0.593
			v2.517c0,0.326,0.26,0.592,0.581,0.592h3.11v5.176h-3.11c-0.321,0-0.581,0.266-0.581,0.594v2.516c0,0.327,0.26,0.594,0.581,0.594
			h3.11v19.896h-1.373c-0.321,0-0.581,0.267-0.581,0.595v5.398c0,0.326,0.26,0.593,0.581,0.593h19.971
			c0.321,0,0.581-0.267,0.581-0.593v-5.398c0-0.328-0.26-0.595-0.581-0.595h-0.577v-19.896h0.577c0.321,0,0.581-0.267,0.581-0.594
			v-2.516c0-0.328-0.26-0.594-0.581-0.594h-0.577v-5.176h0.577c0.321,0,0.581-0.266,0.581-0.592v-2.517
			c0-0.328-0.26-0.593-0.581-0.593h-0.575c0.042-1.287,0.366-4.53,2.494-6.821c1.574-1.694,3.836-2.552,6.728-2.552
			c2.896,0,5.16,0.861,6.733,2.558c2.129,2.298,2.45,5.532,2.49,6.815h-0.576c-0.321,0-0.581,0.265-0.581,0.593v2.517
			c0,0.326,0.26,0.592,0.581,0.592h0.577v5.176h-0.577c-0.321,0-0.581,0.266-0.581,0.594v2.516c0,0.327,0.26,0.594,0.581,0.594
			h0.577v19.896h-0.577c-0.321,0-0.581,0.267-0.581,0.595v5.398c0,0.326,0.26,0.593,0.581,0.593h19.971
			c0.321,0,0.581-0.267,0.581-0.593v-5.398c0-0.328-0.26-0.595-0.581-0.595h-1.373v-19.896h3.11c0.321,0,0.58-0.267,0.58-0.594
			v-2.516c0-0.328-0.259-0.594-0.58-0.594h-3.11v-5.176h3.11c0.321,0,0.58-0.266,0.58-0.592v-2.517c0-0.328-0.259-0.593-0.58-0.593
			h-3.11v-15.627c0-0.133-0.052-0.25-0.124-0.35h1.643c0.213,0,0.409-0.119,0.51-0.311l2.171-4.104
			c0.098-0.185,0.093-0.407-0.011-0.587c-0.105-0.18-0.295-0.29-0.499-0.29h-2.964v-4.844c0-0.328-0.261-0.595-0.581-0.595h-1.156
			v-4.73c0-0.328-0.26-0.594-0.581-0.594h-3.634v-10.133c0-0.328-0.259-0.594-0.58-0.594h-8.811v-3.438
			c0-0.328-0.26-0.595-0.58-0.595h-4.526l-3.195-2.475v-1.314c0-0.327-0.26-0.594-0.581-0.594h-3.744h-3.743
			c-0.321,0-0.581,0.267-0.581,0.594v1.314l-3.196,2.475h-4.526c-0.32,0-0.581,0.267-0.581,0.595v3.438h-8.809
			c-0.321,0-0.581,0.266-0.581,0.594v10.133h-3.634c-0.321,0-0.581,0.266-0.581,0.594v4.73h-1.155c-0.321,0-0.581,0.267-0.581,0.595
			v4.844h-2.965c-0.205,0-0.394,0.11-0.499,0.29c-0.104,0.18-0.109,0.402-0.012,0.586l2.17,4.104
			C679.312,214.848,679.508,214.965,679.722,214.965z"/>
		<g>
			
				<rect x="717.132" y="264.008" fill="none" stroke="#3C3C3A" stroke-linecap="round" stroke-linejoin="round" stroke-miterlimit="10" width="19.971" height="5.398"/>
			
				<rect x="717.132" y="240.41" fill="none" stroke="#3C3C3A" stroke-linecap="round" stroke-linejoin="round" stroke-miterlimit="10" width="21.708" height="2.515"/>
			
				<rect x="717.132" y="231.533" fill="none" stroke="#3C3C3A" stroke-linecap="round" stroke-linejoin="round" stroke-miterlimit="10" width="21.708" height="2.516"/>
			
				<line fill="none" stroke="#3C3C3A" stroke-linecap="round" stroke-linejoin="round" stroke-miterlimit="10" x1="735.148" y1="264.008" x2="735.148" y2="242.925"/>
			
				<line fill="none" stroke="#3C3C3A" stroke-linecap="round" stroke-linejoin="round" stroke-miterlimit="10" x1="718.29" y1="264.008" x2="718.29" y2="242.925"/>
			
				<line fill="none" stroke="#3C3C3A" stroke-linecap="round" stroke-linejoin="round" stroke-miterlimit="10" x1="735.148" y1="240.41" x2="735.148" y2="234.049"/>
			
				<line fill="none" stroke="#3C3C3A" stroke-linecap="round" stroke-linejoin="round" stroke-miterlimit="10" x1="718.29" y1="240.41" x2="718.29" y2="234.049"/>
			<path fill="none" stroke="#3C3C3A" stroke-linecap="round" stroke-linejoin="round" stroke-miterlimit="10" d="M718.29,231.534
				c0,0,0.561-10.562-9.806-10.562"/>
			
				<line fill="none" stroke="#3C3C3A" stroke-linecap="round" stroke-linejoin="round" stroke-miterlimit="10" x1="735.148" y1="215.314" x2="735.148" y2="231.533"/>
			<polyline fill="none" stroke="#3C3C3A" stroke-linecap="round" stroke-linejoin="round" stroke-miterlimit="10" points="
				708.484,210.266 739.418,210.266 737.248,214.372 708.484,214.372 			"/>
			
				<ellipse fill="none" stroke="#3C3C3A" stroke-linecap="round" stroke-linejoin="round" stroke-miterlimit="10" cx="726.231" cy="222.951" rx="3.691" ry="3.773"/>
			
				<ellipse fill="none" stroke="#3C3C3A" stroke-linecap="round" stroke-linejoin="round" stroke-miterlimit="10" cx="722.541" cy="196.008" rx="3.69" ry="3.771"/>
			
				<rect x="721.239" y="246.051" fill="none" stroke="#3C3C3A" stroke-linecap="round" stroke-linejoin="round" stroke-miterlimit="10" width="10.968" height="14.629"/>
			<polyline fill="none" stroke="#3C3C3A" stroke-linecap="round" stroke-linejoin="round" stroke-miterlimit="10" points="
				708.484,204.829 735.874,204.829 735.874,210.266 			"/>
			<polyline fill="none" stroke="#3C3C3A" stroke-linecap="round" stroke-linejoin="round" stroke-miterlimit="10" points="
				708.484,188.777 729.922,188.777 729.922,199.504 734.137,199.504 734.137,204.829 			"/>
			<polyline fill="none" stroke="#3C3C3A" stroke-linecap="round" stroke-linejoin="round" stroke-miterlimit="10" points="
				719.18,197.563 713.586,197.563 713.586,199.227 708.484,199.227 			"/>
			<polyline fill="none" stroke="#3C3C3A" stroke-linecap="round" stroke-linejoin="round" stroke-miterlimit="10" points="
				719.18,193.898 713.586,193.898 713.586,192.234 708.484,192.234 			"/>
			<polyline fill="none" stroke="#3C3C3A" stroke-linecap="round" stroke-linejoin="round" stroke-miterlimit="10" points="
				708.484,180.361 712.229,180.361 712.229,181.973 715.811,184.746 720.532,184.746 720.532,188.777 			"/>
			
				<rect x="679.867" y="264.008" fill="none" stroke="#3C3C3A" stroke-linecap="round" stroke-linejoin="round" stroke-miterlimit="10" width="19.971" height="5.398"/>
			
				<rect x="678.13" y="240.41" fill="none" stroke="#3C3C3A" stroke-linecap="round" stroke-linejoin="round" stroke-miterlimit="10" width="21.708" height="2.515"/>
			
				<rect x="678.13" y="231.533" fill="none" stroke="#3C3C3A" stroke-linecap="round" stroke-linejoin="round" stroke-miterlimit="10" width="21.708" height="2.516"/>
			
				<line fill="none" stroke="#3C3C3A" stroke-linecap="round" stroke-linejoin="round" stroke-miterlimit="10" x1="681.82" y1="264.008" x2="681.82" y2="242.925"/>
			
				<line fill="none" stroke="#3C3C3A" stroke-linecap="round" stroke-linejoin="round" stroke-miterlimit="10" x1="698.68" y1="264.008" x2="698.68" y2="242.925"/>
			
				<line fill="none" stroke="#3C3C3A" stroke-linecap="round" stroke-linejoin="round" stroke-miterlimit="10" x1="681.82" y1="240.41" x2="681.82" y2="234.049"/>
			
				<line fill="none" stroke="#3C3C3A" stroke-linecap="round" stroke-linejoin="round" stroke-miterlimit="10" x1="698.68" y1="240.41" x2="698.68" y2="234.049"/>
			<path fill="none" stroke="#3C3C3A" stroke-linecap="round" stroke-linejoin="round" stroke-miterlimit="10" d="M698.68,231.534
				c0,0-0.561-10.562,9.805-10.562"/>
			
				<line fill="none" stroke="#3C3C3A" stroke-linecap="round" stroke-linejoin="round" stroke-miterlimit="10" x1="681.82" y1="215.314" x2="681.82" y2="231.533"/>
			<polyline fill="none" stroke="#3C3C3A" stroke-linecap="round" stroke-linejoin="round" stroke-miterlimit="10" points="
				708.484,210.266 677.551,210.266 679.722,214.372 708.484,214.372 			"/>
			
				<ellipse fill="none" stroke="#3C3C3A" stroke-linecap="round" stroke-linejoin="round" stroke-miterlimit="10" cx="690.739" cy="222.951" rx="3.691" ry="3.773"/>
			
				<ellipse fill="none" stroke="#3C3C3A" stroke-linecap="round" stroke-linejoin="round" stroke-miterlimit="10" cx="694.429" cy="196.008" rx="3.69" ry="3.771"/>
			
				<rect x="684.763" y="246.051" fill="none" stroke="#3C3C3A" stroke-linecap="round" stroke-linejoin="round" stroke-miterlimit="10" width="10.968" height="14.629"/>
			<polyline fill="none" stroke="#3C3C3A" stroke-linecap="round" stroke-linejoin="round" stroke-miterlimit="10" points="
				708.484,204.829 681.096,204.829 681.096,210.266 			"/>
			<polyline fill="none" stroke="#3C3C3A" stroke-linecap="round" stroke-linejoin="round" stroke-miterlimit="10" points="
				708.484,188.777 687.048,188.777 687.048,199.504 682.833,199.504 682.833,204.829 			"/>
			<polyline fill="none" stroke="#3C3C3A" stroke-linecap="round" stroke-linejoin="round" stroke-miterlimit="10" points="
				697.79,197.563 703.384,197.563 703.384,199.227 708.484,199.227 			"/>
			<polyline fill="none" stroke="#3C3C3A" stroke-linecap="round" stroke-linejoin="round" stroke-miterlimit="10" points="
				697.79,193.898 703.384,193.898 703.384,192.234 708.484,192.234 			"/>
			<polyline fill="none" stroke="#3C3C3A" stroke-linecap="round" stroke-linejoin="round" stroke-miterlimit="10" points="
				708.484,180.361 704.74,180.361 704.74,181.973 701.159,184.746 696.437,184.746 696.437,188.777 			"/>
		</g>
	</g>
	<g>
		<path fill="#F6F5F5" d="M18.045,259.044v10.364c0,0.328,0.26,0.594,0.58,0.594h51.33h21.549h0.105h51.227
			c0.32,0,0.58-0.266,0.58-0.594v-10.364c0-0.329-0.26-0.593-0.58-0.593h-8.293v-10.204c0-0.329-0.26-0.595-0.58-0.595h-6.602
			v-10.637c0-0.328-0.261-0.594-0.58-0.594h-8.08V225.57c0-0.327-0.26-0.594-0.582-0.594h-7.658v-10.852
			c0-0.328-0.26-0.594-0.58-0.594H95.885v-10.672c0-0.326-0.258-0.592-0.58-0.592H66.26c-0.319,0-0.58,0.266-0.58,0.592v10.67
			H51.578c-0.32,0-0.58,0.266-0.58,0.594v10.852H43.34c-0.319,0-0.58,0.267-0.58,0.594v10.852h-8.08c-0.319,0-0.58,0.266-0.58,0.594
			v10.637h-6.604c-0.32,0-0.58,0.266-0.58,0.595v10.204h-8.291C18.305,258.449,18.045,258.713,18.045,259.044z"/>
		<g>
			<polygon fill="none" stroke="#3C3C3A" stroke-linecap="round" stroke-linejoin="round" stroke-miterlimit="10" points="
				109.881,214.125 109.881,225.568 118.119,225.568 118.119,237.016 126.781,237.016 126.781,248.245 133.963,248.245 
				133.963,259.042 142.836,259.042 142.836,269.406 91.504,269.406 91.504,214.125 			"/>
			
				<rect x="69.955" y="264.042" fill="none" stroke="#3C3C3A" stroke-linecap="round" stroke-linejoin="round" stroke-miterlimit="10" width="21.654" height="5.364"/>
			
				<rect x="69.955" y="247.402" fill="none" stroke="#3C3C3A" stroke-linecap="round" stroke-linejoin="round" stroke-miterlimit="10" width="21.654" height="5.365"/>
			
				<rect x="69.955" y="230.766" fill="none" stroke="#3C3C3A" stroke-linecap="round" stroke-linejoin="round" stroke-miterlimit="10" width="21.654" height="5.362"/>
			
				<rect x="69.955" y="214.125" fill="none" stroke="#3C3C3A" stroke-linecap="round" stroke-linejoin="round" stroke-miterlimit="10" width="21.654" height="5.363"/>
			
				<rect x="66.26" y="202.859" fill="none" stroke="#3C3C3A" stroke-linecap="round" stroke-linejoin="round" stroke-miterlimit="10" width="29.045" height="11.266"/>
			
				<line fill="none" stroke="#3C3C3A" stroke-linecap="round" stroke-linejoin="round" stroke-miterlimit="10" x1="99.106" y1="225.568" x2="109.881" y2="225.568"/>
			
				<line fill="none" stroke="#3C3C3A" stroke-linecap="round" stroke-linejoin="round" stroke-miterlimit="10" x1="107.24" y1="236.906" x2="118.014" y2="236.906"/>
			
				<line fill="none" stroke="#3C3C3A" stroke-linecap="round" stroke-linejoin="round" stroke-miterlimit="10" x1="116.219" y1="248.245" x2="126.992" y2="248.245"/>
			
				<line fill="none" stroke="#3C3C3A" stroke-linecap="round" stroke-linejoin="round" stroke-miterlimit="10" x1="123.533" y1="259.042" x2="134.307" y2="259.042"/>
			<polygon fill="none" stroke="#3C3C3A" stroke-linecap="round" stroke-linejoin="round" stroke-miterlimit="10" points="
				51.578,214.125 51.578,225.568 43.34,225.568 43.34,237.016 34.68,237.016 34.68,248.245 27.496,248.245 27.496,259.042 
				18.625,259.042 18.625,269.406 69.955,269.406 69.955,214.125 			"/>
			
				<line fill="none" stroke="#3C3C3A" stroke-linecap="round" stroke-linejoin="round" stroke-miterlimit="10" x1="62.353" y1="225.568" x2="51.578" y2="225.568"/>
			
				<line fill="none" stroke="#3C3C3A" stroke-linecap="round" stroke-linejoin="round" stroke-miterlimit="10" x1="54.219" y1="236.906" x2="43.445" y2="236.906"/>
			
				<line fill="none" stroke="#3C3C3A" stroke-linecap="round" stroke-linejoin="round" stroke-miterlimit="10" x1="45.242" y1="248.245" x2="34.467" y2="248.245"/>
			
				<line fill="none" stroke="#3C3C3A" stroke-linecap="round" stroke-linejoin="round" stroke-miterlimit="10" x1="37.928" y1="259.042" x2="27.154" y2="259.042"/>
		</g>
	</g>
	<g>
		<path fill="#F6F5F5" d="M94.407,127.513c0.089,1.209,0.707,2.081,1.693,2.393c2.1,0.669,11.866,0.165,14.038,0.044l8.736,12.077
			c0.103,0.139,0.256,0.227,0.424,0.24l13.929,1.055l6.452,2.734l1.558,46.176c0.008,0.207,0.121,0.395,0.297,0.496
			c0.088,0.051,0.185,0.076,0.283,0.076s0.196-0.025,0.287-0.078l0.231-0.135l1.105,12.908v29.225h-9.476
			c-0.32,0-0.58,0.266-0.58,0.594v3.847c0,0.327,0.26,0.593,0.58,0.593h2.226l-3.32,29.582c-0.019,0.168,0.034,0.336,0.143,0.463
			c0.112,0.127,0.271,0.197,0.435,0.197h55.469c0.166,0,0.325-0.07,0.434-0.197c0.11-0.127,0.164-0.295,0.146-0.463l-3.322-29.582
			h2.226c0.319,0,0.58-0.266,0.58-0.593v-3.847c0-0.328-0.261-0.594-0.58-0.594h-9.541V185.32l0.807-16.23l1.215-0.943
			c0.139-0.109,0.223-0.276,0.229-0.457l0.627-21.635l6.448-2.732l13.931-1.055c0.168-0.013,0.321-0.101,0.424-0.24l8.736-12.077
			c2.17,0.119,11.936,0.623,14.041-0.044c0.981-0.312,1.599-1.184,1.688-2.393c0.116-1.553-0.722-3.707-2.279-4.478
			c-1.273-0.63-3.471-0.56-5.139-0.379c1.035-0.955,1.844-2.049,1.371-2.87c-0.271-0.472-0.809-0.794-1.512-0.906
			c-1.084-0.182-2.738,0.147-3.963,1.262c-1.492,1.359-4.013,2.487-4.715,2.649c-1.076,0.151-28.974,0.391-40.507,0.478
			c0.341-2.841,1.273-13.534-3.129-18.777c-1.616-1.928-3.78-2.905-6.426-2.905s-4.807,0.977-6.426,2.905
			c-4.404,5.243-3.47,15.935-3.129,18.777c-11.531-0.086-39.432-0.327-40.531-0.482c-0.676-0.157-3.196-1.285-4.688-2.645
			c-1.227-1.115-2.875-1.443-3.967-1.262c-0.701,0.112-1.238,0.434-1.51,0.906c-0.473,0.821,0.336,1.915,1.371,2.87
			c-1.672-0.181-3.868-0.251-5.141,0.379C95.131,123.806,94.293,125.96,94.407,127.513z"/>
		<g>
			<polygon fill="none" stroke="#3C3C3A" stroke-linecap="round" stroke-linejoin="round" stroke-miterlimit="10" points="
				188.916,269.406 133.447,269.406 136.842,239.165 185.521,239.165 			"/>
			
				<rect x="133.966" y="235.318" fill="none" stroke="#3C3C3A" stroke-linecap="round" stroke-linejoin="round" stroke-miterlimit="10" width="54.43" height="3.847"/>
			<polygon fill="none" stroke="#3C3C3A" stroke-linecap="round" stroke-linejoin="round" stroke-miterlimit="10" points="
				144.021,235.318 144.021,205.475 178.275,185.313 178.275,235.318 161.182,235.318 			"/>
			<path fill="none" stroke="#3C3C3A" stroke-linecap="round" stroke-linejoin="round" stroke-miterlimit="10" d="M160.705,102.181
				c12.141,0,8.891,21.687,8.891,21.687s40.44-0.299,41.3-0.498c0.859-0.199,3.441-1.392,4.973-2.785
				c1.527-1.393,4.014-1.493,4.588-0.497c0.572,0.994-2.965,3.481-2.965,3.481s4.972-0.995,6.979,0
				c2.007,0.995,2.867,5.073,0.669,5.77c-2.197,0.696-14.148,0-14.148,0l-8.924,12.335l-14.021,1.063l-6.885,2.918l-0.637,22.019
				l-10.07,7.825"/>
			<path fill="none" stroke="#3C3C3A" stroke-linecap="round" stroke-linejoin="round" stroke-miterlimit="10" d="M160.707,102.181
				c-12.142,0-8.894,21.687-8.894,21.687s-40.438-0.299-41.297-0.498c-0.861-0.199-3.441-1.392-4.971-2.785
				c-1.531-1.393-4.018-1.493-4.59-0.497c-0.574,0.994,2.963,3.481,2.963,3.481s-4.971-0.995-6.979,0
				c-2.009,0.995-2.867,5.073-0.67,5.77c2.198,0.696,14.149,0,14.149,0l8.922,12.335l14.021,1.063l6.883,2.918l1.569,46.557
				l9.138-5.307"/>
			
				<line fill="none" stroke="#3C3C3A" stroke-linecap="round" stroke-linejoin="round" stroke-miterlimit="10" x1="178.275" y1="185.313" x2="179.098" y2="168.783"/>
			
				<line fill="none" stroke="#3C3C3A" stroke-linecap="round" stroke-linejoin="round" stroke-miterlimit="10" x1="144.021" y1="205.475" x2="142.836" y2="191.619"/>
			<path fill="none" stroke="#3C3C3A" stroke-linecap="round" stroke-linejoin="round" stroke-miterlimit="10" d="M165.124,118.397
				c0,0-1.135,2.237-5.887,2.088c-4.771-0.149-3.31-9.749-3.31-9.749"/>
			
				<line fill="none" stroke="#3C3C3A" stroke-linecap="round" stroke-linejoin="round" stroke-miterlimit="10" x1="210.896" y1="123.37" x2="210.99" y2="129.339"/>
			
				<line fill="none" stroke="#3C3C3A" stroke-linecap="round" stroke-linejoin="round" stroke-miterlimit="10" x1="110.42" y1="129.339" x2="110.516" y2="123.37"/>
			
				<line fill="none" stroke="#3C3C3A" stroke-linecap="round" stroke-linejoin="round" stroke-miterlimit="10" x1="141.012" y1="168.327" x2="181.162" y2="145.654"/>
			<polyline fill="none" stroke="#3C3C3A" stroke-linecap="round" stroke-linejoin="round" stroke-miterlimit="10" points="
				151.812,123.868 160.42,129.339 169.596,123.868 			"/>
		</g>
	</g>
	<g>
		<path fill="#F6F5F5" d="M191.97,269.581c0.133,0.258,0.397,0.419,0.681,0.419H337.72h31.214c0.286,0,0.549-0.161,0.684-0.42
			c0.134-0.26,0.116-0.574-0.047-0.814l-88.674-132.347c-0.039-0.06-0.093-0.095-0.142-0.14c-0.024-0.02-0.041-0.047-0.065-0.064
			c-0.102-0.068-0.214-0.107-0.33-0.126c-0.012-0.001-0.02-0.01-0.031-0.011c-0.023,0-0.043,0.011-0.064,0.012
			c-0.097-0.001-0.188,0.02-0.28,0.057c-0.029,0.012-0.06,0.021-0.087,0.035c-0.022,0.014-0.049,0.016-0.071,0.033
			c-0.072,0.051-0.127,0.117-0.176,0.184c-0.009,0.01-0.021,0.014-0.029,0.024L192.012,268.77
			C191.853,269.012,191.834,269.322,191.97,269.581z"/>
		<g>
			<polygon fill="none" stroke="#3C3C3A" stroke-linecap="round" stroke-linejoin="round" stroke-miterlimit="10" points="
				192.65,269.211 337.721,269.211 280.26,136.865 			"/>
			<polyline fill="none" stroke="#3C3C3A" stroke-linecap="round" stroke-linejoin="round" stroke-miterlimit="10" points="
				337.721,269.211 368.934,269.211 280.26,136.865 			"/>
			
				<line fill="none" stroke="#3C3C3A" stroke-linecap="round" stroke-linejoin="round" stroke-miterlimit="10" x1="289.195" y1="238.883" x2="307.51" y2="238.883"/>
			
				<line fill="none" stroke="#3C3C3A" stroke-linecap="round" stroke-linejoin="round" stroke-miterlimit="10" x1="246.772" y1="216.723" x2="289.195" y2="216.723"/>
			
				<line fill="none" stroke="#3C3C3A" stroke-linecap="round" stroke-linejoin="round" stroke-miterlimit="10" x1="241.539" y1="229.521" x2="266.209" y2="229.521"/>
			
				<line fill="none" stroke="#3C3C3A" stroke-linecap="round" stroke-linejoin="round" stroke-miterlimit="10" x1="278.168" y1="197.615" x2="294.24" y2="197.615"/>
			
				<line fill="none" stroke="#3C3C3A" stroke-linecap="round" stroke-linejoin="round" stroke-miterlimit="10" x1="280.26" y1="170.299" x2="283.029" y2="170.299"/>
			
				<line fill="none" stroke="#3C3C3A" stroke-linecap="round" stroke-linejoin="round" stroke-miterlimit="10" x1="222.479" y1="245.568" x2="254.623" y2="245.568"/>
			
				<line fill="none" stroke="#3C3C3A" stroke-linecap="round" stroke-linejoin="round" stroke-miterlimit="10" x1="256.863" y1="257.605" x2="275.365" y2="257.605"/>
			
				<line fill="none" stroke="#3C3C3A" stroke-linecap="round" stroke-linejoin="round" stroke-miterlimit="10" x1="218.367" y1="258.941" x2="234.625" y2="258.941"/>
			
				<line fill="none" stroke="#3C3C3A" stroke-linecap="round" stroke-linejoin="round" stroke-miterlimit="10" x1="346.193" y1="261.428" x2="353.67" y2="261.428"/>
			
				<line fill="none" stroke="#3C3C3A" stroke-linecap="round" stroke-linejoin="round" stroke-miterlimit="10" x1="334.98" y1="251.874" x2="346.193" y2="251.874"/>
			
				<line fill="none" stroke="#3C3C3A" stroke-linecap="round" stroke-linejoin="round" stroke-miterlimit="10" x1="325.637" y1="227.993" x2="333.299" y2="227.993"/>
		</g>
	</g>
	<g>
		<path fill="#F6F5F5" d="M158.818,269.684c0.102,0.194,0.299,0.315,0.512,0.315h109.062h23.468c0.215,0,0.411-0.121,0.514-0.315
			c0.102-0.195,0.088-0.431-0.035-0.611l-66.664-99.498c-0.028-0.043-0.069-0.071-0.106-0.105c-0.019-0.015-0.031-0.033-0.05-0.048
			c-0.075-0.051-0.159-0.082-0.247-0.093c-0.01-0.001-0.016-0.008-0.023-0.01c-0.018-0.002-0.031,0.01-0.049,0.01
			c-0.072,0-0.144,0.013-0.213,0.04c-0.022,0.009-0.043,0.017-0.063,0.028c-0.018,0.01-0.037,0.012-0.055,0.023
			c-0.056,0.038-0.097,0.087-0.131,0.139c-0.007,0.008-0.018,0.01-0.021,0.018l-65.865,99.498
			C158.729,269.257,158.717,269.49,158.818,269.684z"/>
		<g>
			<polygon fill="none" stroke="#3C3C3A" stroke-linecap="round" stroke-linejoin="round" stroke-miterlimit="10" points="
				159.33,269.406 268.393,269.406 225.195,169.91 			"/>
			<polyline fill="none" stroke="#3C3C3A" stroke-linecap="round" stroke-linejoin="round" stroke-miterlimit="10" points="
				268.393,269.406 291.859,269.406 225.195,169.91 			"/>
			
				<line fill="none" stroke="#3C3C3A" stroke-linecap="round" stroke-linejoin="round" stroke-miterlimit="10" x1="240.623" y1="257.809" x2="255.375" y2="257.809"/>
			
				<line fill="none" stroke="#3C3C3A" stroke-linecap="round" stroke-linejoin="round" stroke-miterlimit="10" x1="231.912" y1="246.605" x2="245.68" y2="246.605"/>
			
				<line fill="none" stroke="#3C3C3A" stroke-linecap="round" stroke-linejoin="round" stroke-miterlimit="10" x1="200.021" y1="229.945" x2="231.912" y2="229.945"/>
			
				<line fill="none" stroke="#3C3C3A" stroke-linecap="round" stroke-linejoin="round" stroke-miterlimit="10" x1="223.621" y1="215.583" x2="235.705" y2="215.583"/>
			
				<line fill="none" stroke="#3C3C3A" stroke-linecap="round" stroke-linejoin="round" stroke-miterlimit="10" x1="209.435" y1="202.656" x2="226.435" y2="202.656"/>
			
				<line fill="none" stroke="#3C3C3A" stroke-linecap="round" stroke-linejoin="round" stroke-miterlimit="10" x1="225.195" y1="195.045" x2="227.275" y2="195.045"/>
			
				<line fill="none" stroke="#3C3C3A" stroke-linecap="round" stroke-linejoin="round" stroke-miterlimit="10" x1="181.754" y1="251.632" x2="205.92" y2="251.632"/>
			
				<line fill="none" stroke="#3C3C3A" stroke-linecap="round" stroke-linejoin="round" stroke-miterlimit="10" x1="178.664" y1="261.688" x2="190.887" y2="261.688"/>
			
				<line fill="none" stroke="#3C3C3A" stroke-linecap="round" stroke-linejoin="round" stroke-miterlimit="10" x1="266.334" y1="256.372" x2="274.764" y2="256.372"/>
			
				<line fill="none" stroke="#3C3C3A" stroke-linecap="round" stroke-linejoin="round" stroke-miterlimit="10" x1="257.201" y1="229.945" x2="260.994" y2="229.945"/>
		</g>
	</g>
	<g>
		<path fill="#F6F5F5" d="M386.855,247.145v16.604H376.37c-0.321,0-0.581,0.267-0.581,0.595v5.064c0,0.326,0.26,0.593,0.581,0.593
			h42.16c0.008,0,0.013-0.005,0.021-0.005s0.014,0.005,0.022,0.005h42.158c0.321,0,0.581-0.267,0.581-0.593v-5.064
			c0-0.328-0.26-0.595-0.581-0.595h-10.484v-16.604c33.019-1.99,38.487-6.846,38.755-7.102c0.173-0.168,0.228-0.423,0.141-0.648
			c-0.086-0.227-0.298-0.373-0.535-0.377c-16.201-0.138-29.562-2.412-40.107-5.313c0.294-0.069,0.491-0.356,0.44-0.666
			l-2.579-16.241c27.4-1.818,31.984-6.1,32.21-6.328c0.165-0.168,0.216-0.423,0.128-0.644c-0.09-0.222-0.299-0.368-0.532-0.371
			c-15.099-0.138-27.293-2.567-36.613-5.517c0.153-0.123,0.248-0.316,0.222-0.531l-1.962-16.279
			c20.799-1.839,24.305-6.143,24.477-6.372c0.133-0.179,0.156-0.418,0.06-0.62c-0.097-0.201-0.295-0.332-0.515-0.334
			c-11.052-0.132-20.053-2.4-27.017-5.207c0.035-0.089,0.059-0.181,0.05-0.281l-1.54-16.309c16.286-1.857,19.041-6.186,19.177-6.416
			c0.105-0.182,0.109-0.408,0.008-0.593c-0.101-0.187-0.29-0.302-0.498-0.306c-22.838-0.348-34.442-15.591-34.951-16.276
			c0.028-0.07,0.044-0.146,0.044-0.225v-17.909c0-0.327-0.26-0.593-0.581-0.593c-0.32,0-0.58,0.265-0.58,0.593v17.909
			c0,0.094,0.023,0.179,0.063,0.258c-0.843,1.113-12.473,15.902-34.928,16.244c-0.207,0.004-0.397,0.119-0.498,0.306
			c-0.102,0.185-0.098,0.411,0.008,0.593c0.135,0.23,2.891,4.559,19.177,6.416l-1.539,16.309c-0.01,0.1,0.014,0.192,0.048,0.281
			c-6.963,2.807-15.964,5.075-27.016,5.207c-0.22,0.002-0.418,0.133-0.515,0.334c-0.097,0.202-0.072,0.441,0.061,0.62
			c0.172,0.229,3.677,4.533,24.476,6.372l-1.961,16.279c-0.027,0.215,0.068,0.408,0.222,0.531
			c-9.321,2.951-21.517,5.379-36.613,5.517c-0.234,0.003-0.443,0.149-0.531,0.371c-0.09,0.221-0.039,0.475,0.127,0.644
			c0.225,0.229,4.809,4.51,32.209,6.328l-2.577,16.241c-0.051,0.31,0.146,0.597,0.44,0.666c-10.546,2.901-23.904,5.175-40.107,5.313
			c-0.236,0.004-0.449,0.15-0.535,0.377c-0.086,0.225-0.031,0.48,0.141,0.648C348.363,240.299,353.832,245.154,386.855,247.145z"/>
		<g>
			<path fill="none" stroke="#3C3C3A" stroke-linecap="round" stroke-linejoin="round" stroke-miterlimit="10" d="M418.567,134.188"
				/>
			<path fill="none" stroke="#3C3C3A" stroke-linecap="round" stroke-linejoin="round" stroke-miterlimit="10" d="M418.567,158.247
				c31.366,0,35.436-6.966,35.436-6.966c-23.8-0.36-35.436-16.551-35.436-16.551"/>
			
				<line fill="none" stroke="#3C3C3A" stroke-linecap="round" stroke-linejoin="round" stroke-miterlimit="10" x1="436.286" y1="174.367" x2="434.691" y2="157.479"/>
			<path fill="none" stroke="#3C3C3A" stroke-linecap="round" stroke-linejoin="round" stroke-miterlimit="10" d="M418.567,163.298"
				/>
			<path fill="none" stroke="#3C3C3A" stroke-linecap="round" stroke-linejoin="round" stroke-miterlimit="10" d="M418.567,187.357
				c40.058,0,45.256-6.963,45.256-6.963c-30.396-0.363-45.256-16.555-45.256-16.555"/>
			
				<line fill="none" stroke="#3C3C3A" stroke-linecap="round" stroke-linejoin="round" stroke-miterlimit="10" x1="441.196" y1="203.479" x2="439.161" y2="186.591"/>
			<path fill="none" stroke="#3C3C3A" stroke-linecap="round" stroke-linejoin="round" stroke-miterlimit="10" d="M418.567,192.952"
				/>
			<path fill="none" stroke="#3C3C3A" stroke-linecap="round" stroke-linejoin="round" stroke-miterlimit="10" d="M418.567,217.012
				c52.745,0,59.591-6.965,59.591-6.965c-40.025-0.363-59.591-16.553-59.591-16.553"/>
			<path fill="none" stroke="#3C3C3A" stroke-linecap="round" stroke-linejoin="round" stroke-miterlimit="10" d="M418.567,247.391
				c61.986,0,70.03-7.779,70.03-7.779c-47.036-0.403-70.03-18.489-70.03-18.489"/>
			
				<line fill="none" stroke="#3C3C3A" stroke-linecap="round" stroke-linejoin="round" stroke-miterlimit="10" x1="448.363" y1="233.133" x2="445.683" y2="216.244"/>
			
				<line fill="none" stroke="#3C3C3A" stroke-linecap="round" stroke-linejoin="round" stroke-miterlimit="10" x1="449.662" y1="264.342" x2="449.662" y2="246.581"/>
			<polyline fill="none" stroke="#3C3C3A" stroke-linecap="round" stroke-linejoin="round" stroke-miterlimit="10" points="
				418.567,264.342 460.728,264.342 460.728,269.406 418.567,269.406 			"/>
			
				<rect x="435.335" y="251.498" fill="none" stroke="#3C3C3A" stroke-linecap="round" stroke-linejoin="round" stroke-miterlimit="10" width="8.052" height="12.844"/>
			
				<rect x="421.354" y="251.498" fill="none" stroke="#3C3C3A" stroke-linecap="round" stroke-linejoin="round" stroke-miterlimit="10" width="8.053" height="12.844"/>
			<path fill="none" stroke="#3C3C3A" stroke-linecap="round" stroke-linejoin="round" stroke-miterlimit="10" d="M418.524,134.188"
				/>
			<path fill="none" stroke="#3C3C3A" stroke-linecap="round" stroke-linejoin="round" stroke-miterlimit="10" d="M418.524,158.247
				c-31.364,0-35.436-6.966-35.436-6.966c23.801-0.36,35.436-16.551,35.436-16.551"/>
			
				<line fill="none" stroke="#3C3C3A" stroke-linecap="round" stroke-linejoin="round" stroke-miterlimit="10" x1="400.807" y1="174.367" x2="402.399" y2="157.479"/>
			<path fill="none" stroke="#3C3C3A" stroke-linecap="round" stroke-linejoin="round" stroke-miterlimit="10" d="M418.524,163.298"
				/>
			<path fill="none" stroke="#3C3C3A" stroke-linecap="round" stroke-linejoin="round" stroke-miterlimit="10" d="M418.524,187.357
				c-40.058,0-45.256-6.963-45.256-6.963c30.397-0.363,45.256-16.555,45.256-16.555"/>
			
				<line fill="none" stroke="#3C3C3A" stroke-linecap="round" stroke-linejoin="round" stroke-miterlimit="10" x1="395.896" y1="203.479" x2="397.932" y2="186.591"/>
			<path fill="none" stroke="#3C3C3A" stroke-linecap="round" stroke-linejoin="round" stroke-miterlimit="10" d="M418.524,192.952"
				/>
			<path fill="none" stroke="#3C3C3A" stroke-linecap="round" stroke-linejoin="round" stroke-miterlimit="10" d="M418.524,217.012
				c-52.744,0-59.589-6.965-59.589-6.965c40.023-0.363,59.589-16.553,59.589-16.553"/>
			<path fill="none" stroke="#3C3C3A" stroke-linecap="round" stroke-linejoin="round" stroke-miterlimit="10" d="M418.524,247.391
				c-61.987,0-70.028-7.779-70.028-7.779c47.035-0.403,70.028-18.489,70.028-18.489"/>
			
				<line fill="none" stroke="#3C3C3A" stroke-linecap="round" stroke-linejoin="round" stroke-miterlimit="10" x1="388.729" y1="233.133" x2="391.41" y2="216.244"/>
			
				<line fill="none" stroke="#3C3C3A" stroke-linecap="round" stroke-linejoin="round" stroke-miterlimit="10" x1="387.432" y1="264.342" x2="387.432" y2="246.581"/>
			<polyline fill="none" stroke="#3C3C3A" stroke-linecap="round" stroke-linejoin="round" stroke-miterlimit="10" points="
				418.524,264.342 376.365,264.342 376.365,269.406 418.524,269.406 			"/>
			
				<rect x="393.706" y="251.498" fill="none" stroke="#3C3C3A" stroke-linecap="round" stroke-linejoin="round" stroke-miterlimit="10" width="8.052" height="12.844"/>
			
				<rect x="407.686" y="251.498" fill="none" stroke="#3C3C3A" stroke-linecap="round" stroke-linejoin="round" stroke-miterlimit="10" width="8.053" height="12.844"/>
			
				<line fill="none" stroke="#3C3C3A" stroke-linecap="round" stroke-linejoin="round" stroke-miterlimit="10" x1="418.524" y1="116.278" x2="418.524" y2="134.188"/>
		</g>
	</g>
	<g>
		<path fill="#F6F5F5" d="M600.767,269.712c0.105,0.181,0.295,0.289,0.499,0.289h11.313h6.56c0.273,0,0.51-0.196,0.568-0.47
			c0.145-0.695,3.847-17.022,28.428-17.022c0.034,0,0.063-0.014,0.095-0.021c0.032,0.007,0.062,0.021,0.096,0.021
			c24.627,0,28.391,16.851,28.426,17.022c0.056,0.275,0.294,0.47,0.567,0.47h6.562h11.313c0.204,0,0.395-0.108,0.499-0.289
			c0.105-0.179,0.109-0.401,0.014-0.585l-15.226-28.863h3.021c0.32,0,0.581-0.267,0.581-0.595v-11.272
			c0-0.328-0.261-0.594-0.581-0.594h-6.72c-7.007-10.441-9.824-37.009-10.232-41.242c0.936-0.125,1.735-0.513,2.319-1.166
			c0.627-0.703,0.972-1.656,0.972-2.682c0-1.992-1.375-4.109-3.924-4.109h-1.908c-0.818-7.197-9.872-87.942-9.87-136.22
			c0-0.135-0.052-0.254-0.127-0.354h1.923c0.321,0,0.581-0.265,0.581-0.593V35.97c0-0.328-0.26-0.594-0.581-0.594h-1.845
			l-0.572-6.602c-0.025-0.307-0.278-0.542-0.578-0.542h-1.243l-0.602-8.415c-0.023-0.31-0.276-0.55-0.58-0.55h-1.796V0.594
			c0-0.329-0.26-0.594-0.581-0.594s-0.581,0.265-0.581,0.594v18.672h-1.604c-0.306,0-0.559,0.24-0.58,0.55l-0.603,8.415h-1.243
			c-0.301,0-0.552,0.235-0.577,0.542l-0.572,6.602h-1.846c-0.32,0-0.58,0.266-0.58,0.594v5.467c0,0.327,0.26,0.593,0.58,0.593h1.924
			c-0.075,0.1-0.127,0.219-0.127,0.354c0.002,48.279-9.054,129.024-9.871,136.22h-1.908c-2.549,0-3.924,2.115-3.924,4.108
			c0,1.026,0.347,1.979,0.972,2.683c0.584,0.652,1.383,1.041,2.319,1.164c-0.408,4.234-3.227,30.801-10.23,41.244h-6.724
			c-0.321,0-0.581,0.266-0.581,0.594v11.271c0,0.328,0.26,0.594,0.581,0.594h3.021l-15.225,28.864
			C600.66,269.311,600.664,269.531,600.767,269.712z"/>
		<g>
			<path fill="none" stroke="#3C3C3A" stroke-linecap="round" stroke-linejoin="round" stroke-miterlimit="10" d="M648.327,246.666
				c33.271,0,35.555,22.74,35.555,22.74h-6.56c0,0-3.614-17.493-28.996-17.493"/>
			<polyline fill="none" stroke="#3C3C3A" stroke-linecap="round" stroke-linejoin="round" stroke-miterlimit="10" points="
				648.326,239.668 679.507,239.668 695.192,269.406 683.881,269.406 			"/>
			<polyline fill="none" stroke="#3C3C3A" stroke-linecap="round" stroke-linejoin="round" stroke-miterlimit="10" points="
				648.326,228.396 683.5,228.396 683.5,239.668 679.507,239.668 			"/>
			<path fill="none" stroke="#3C3C3A" stroke-linecap="round" stroke-linejoin="round" stroke-miterlimit="10" d="M648.326,196.422
				h5.799c0.095,4.18,5.323,31.975,5.323,31.975"/>
			<path fill="none" stroke="#3C3C3A" stroke-linecap="round" stroke-linejoin="round" stroke-miterlimit="10" d="M648.326,186.021
				h17.586c0,0,2.662,31.004,10.553,42.375"/>
			
				<line fill="none" stroke="#3C3C3A" stroke-linecap="round" stroke-linejoin="round" stroke-miterlimit="10" x1="648.326" y1="190.96" x2="666.441" y2="190.96"/>
			<path fill="none" stroke="#3C3C3A" stroke-linecap="round" stroke-linejoin="round" stroke-miterlimit="10" d="M648.326,179.193
				c0,0,13.308,0,17.586,0c4.277,0,4.635,6.828,0,6.828"/>
			<path fill="none" stroke="#3C3C3A" stroke-linecap="round" stroke-linejoin="round" stroke-miterlimit="10" d="M653.554,42.382
				c-0.002,50.925,9.934,136.812,9.934,136.812"/>
			<path fill="none" stroke="#3C3C3A" stroke-linecap="round" stroke-linejoin="round" stroke-miterlimit="10" d="M648.325,86.261
				c-0.001,23.762,6.56,92.932,6.56,92.932"/>
			
				<line fill="none" stroke="#3C3C3A" stroke-linecap="round" stroke-linejoin="round" stroke-miterlimit="10" x1="648.326" y1="51.64" x2="653.554" y2="51.64"/>
			
				<line fill="none" stroke="#3C3C3A" stroke-linecap="round" stroke-linejoin="round" stroke-miterlimit="10" x1="653.554" y1="58.709" x2="648.326" y2="58.709"/>
			<polyline fill="none" stroke="#3C3C3A" stroke-linecap="round" stroke-linejoin="round" stroke-miterlimit="10" points="
				648.326,35.969 655.931,35.969 655.931,41.436 648.326,41.436 			"/>
			<polyline fill="none" stroke="#3C3C3A" stroke-linecap="round" stroke-linejoin="round" stroke-miterlimit="10" points="
				648.326,28.826 652.936,28.826 653.554,35.969 			"/>
			<polyline fill="none" stroke="#3C3C3A" stroke-linecap="round" stroke-linejoin="round" stroke-miterlimit="10" points="
				648.326,19.86 650.512,19.86 651.153,28.826 			"/>
			<path fill="none" stroke="#3C3C3A" stroke-linecap="round" stroke-linejoin="round" stroke-miterlimit="10" d="M648.134,246.666
				c-33.274,0-35.555,22.74-35.555,22.74h6.56c0,0,3.613-17.493,28.996-17.493"/>
			<polyline fill="none" stroke="#3C3C3A" stroke-linecap="round" stroke-linejoin="round" stroke-miterlimit="10" points="
				648.135,239.668 616.954,239.668 601.267,269.406 612.58,269.406 			"/>
			<polyline fill="none" stroke="#3C3C3A" stroke-linecap="round" stroke-linejoin="round" stroke-miterlimit="10" points="
				648.135,228.396 612.96,228.396 612.96,239.668 616.954,239.668 			"/>
			<path fill="none" stroke="#3C3C3A" stroke-linecap="round" stroke-linejoin="round" stroke-miterlimit="10" d="M648.136,196.422
				h-5.8c-0.095,4.18-5.324,31.975-5.324,31.975"/>
			<path fill="none" stroke="#3C3C3A" stroke-linecap="round" stroke-linejoin="round" stroke-miterlimit="10" d="M648.135,186.021
				h-17.587c0,0-2.662,31.004-10.552,42.375"/>
			
				<line fill="none" stroke="#3C3C3A" stroke-linecap="round" stroke-linejoin="round" stroke-miterlimit="10" x1="648.135" y1="190.96" x2="630.018" y2="190.96"/>
			<path fill="none" stroke="#3C3C3A" stroke-linecap="round" stroke-linejoin="round" stroke-miterlimit="10" d="M648.135,179.193
				c0,0-13.31,0-17.588,0s-4.634,6.828,0,6.828"/>
			<path fill="none" stroke="#3C3C3A" stroke-linecap="round" stroke-linejoin="round" stroke-miterlimit="10" d="M642.907,42.382
				c0.003,50.925-9.936,136.812-9.936,136.812"/>
			<path fill="none" stroke="#3C3C3A" stroke-linecap="round" stroke-linejoin="round" stroke-miterlimit="10" d="M648.136,86.261
				c0,23.762-6.56,92.932-6.56,92.932"/>
			
				<line fill="none" stroke="#3C3C3A" stroke-linecap="round" stroke-linejoin="round" stroke-miterlimit="10" x1="648.135" y1="51.64" x2="642.907" y2="51.64"/>
			
				<line fill="none" stroke="#3C3C3A" stroke-linecap="round" stroke-linejoin="round" stroke-miterlimit="10" x1="642.907" y1="58.709" x2="648.135" y2="58.709"/>
			<polyline fill="none" stroke="#3C3C3A" stroke-linecap="round" stroke-linejoin="round" stroke-miterlimit="10" points="
				648.135,35.969 640.53,35.969 640.53,41.436 648.135,41.436 			"/>
			<polyline fill="none" stroke="#3C3C3A" stroke-linecap="round" stroke-linejoin="round" stroke-miterlimit="10" points="
				648.135,28.826 643.523,28.826 642.907,35.969 			"/>
			<polyline fill="none" stroke="#3C3C3A" stroke-linecap="round" stroke-linejoin="round" stroke-miterlimit="10" points="
				648.135,0.593 648.135,19.86 645.949,19.86 645.307,28.826 			"/>
		</g>
	</g>
	<g>
		<path fill="#F6F5F5" d="M0.001,144.156v35.851c0,0.329,0.26,0.593,0.58,0.593h1.824v4.547c0,0.328,0.26,0.592,0.58,0.592h1.031
			v14.951H2.985c-0.32,0-0.58,0.267-0.58,0.595v5.138c0,0.327,0.26,0.594,0.58,0.594h1.031v14.949H2.985
			c-0.32,0-0.58,0.266-0.58,0.594v5.137c0,0.33,0.26,0.595,0.58,0.595h1.031v14.95H2.985c-0.32,0-0.58,0.267-0.58,0.594v4.545H1.974
			c-0.32,0-0.58,0.266-0.58,0.594v20.438c0,0.326,0.26,0.593,0.58,0.593h32.282c0.32,0,0.58-0.267,0.58-0.593v-20.438
			c0-0.328-0.26-0.594-0.58-0.594h-0.43v-4.545c0-0.327-0.26-0.594-0.58-0.594h-1.031v-14.95h1.031c0.32,0,0.58-0.265,0.58-0.595
			v-5.137c0-0.328-0.26-0.594-0.58-0.594h-1.031v-14.949h1.031c0.32,0,0.58-0.267,0.58-0.594v-5.138c0-0.328-0.26-0.595-0.58-0.595
			h-1.031v-14.951h1.031c0.32,0,0.58-0.264,0.58-0.592v-4.545h1.822c0.321,0,0.582-0.265,0.582-0.594v-35.85
			c0-0.328-0.261-0.594-0.582-0.594h-1.822v-4.543c0-0.33-0.26-0.596-0.58-0.596h-0.729v-4.543c0-0.327-0.261-0.593-0.58-0.593
			h-1.388v-3.26c0-0.328-0.26-0.593-0.582-0.593H27.49v-13.22h0.565c0.32,0,0.58-0.266,0.58-0.594v-3.407
			c0-0.327-0.26-0.593-0.58-0.593h-0.875l-8.485-10.454V89.713c0-0.328-0.261-0.594-0.58-0.594c-0.32,0-0.58,0.266-0.58,0.594
			v11.455l-8.486,10.454H8.174c-0.321,0-0.582,0.265-0.582,0.593v3.407c0,0.328,0.261,0.594,0.582,0.594H8.74v13.22H6.261
			c-0.322,0-0.58,0.265-0.58,0.593v3.26H4.294c-0.32,0-0.58,0.265-0.58,0.593v4.543H2.984c-0.32,0-0.58,0.267-0.58,0.595v4.543H0.58
			C0.26,143.563,0,143.829,0.001,144.156z"/>
		<g>
			
				<rect x="0.58" y="144.156" fill="none" stroke="#3C3C3A" stroke-linecap="round" stroke-linejoin="round" stroke-miterlimit="10" width="35.067" height="35.851"/>
			
				<rect x="4.295" y="147.954" fill="none" stroke="#3C3C3A" stroke-linecap="round" stroke-linejoin="round" stroke-miterlimit="10" width="27.642" height="28.255"/>
			
				<ellipse fill="none" stroke="#3C3C3A" stroke-linecap="round" stroke-linejoin="round" stroke-miterlimit="10" cx="18.114" cy="162.082" rx="13.274" ry="13.568"/>
			
				<ellipse fill="none" stroke="#3C3C3A" stroke-linecap="round" stroke-linejoin="round" stroke-miterlimit="10" cx="18.115" cy="162.082" rx="8.795" ry="8.99"/>
			<polyline fill="none" stroke="#3C3C3A" stroke-linecap="round" stroke-linejoin="round" stroke-miterlimit="10" points="
				21.666,157.111 18.115,162.082 20.572,165.266 			"/>
			
				<rect x="2.981" y="222.557" fill="none" stroke="#3C3C3A" stroke-linecap="round" stroke-linejoin="round" stroke-miterlimit="10" width="30.265" height="5.137"/>
			
				<rect x="4.596" y="227.693" fill="none" stroke="#3C3C3A" stroke-linecap="round" stroke-linejoin="round" stroke-miterlimit="10" width="27.039" height="16.138"/>
			
				<rect x="2.981" y="201.281" fill="none" stroke="#3C3C3A" stroke-linecap="round" stroke-linejoin="round" stroke-miterlimit="10" width="30.265" height="5.139"/>
			
				<rect x="4.596" y="206.42" fill="none" stroke="#3C3C3A" stroke-linecap="round" stroke-linejoin="round" stroke-miterlimit="10" width="27.039" height="16.137"/>
			
				<rect x="2.981" y="180.007" fill="none" stroke="#3C3C3A" stroke-linecap="round" stroke-linejoin="round" stroke-miterlimit="10" width="30.265" height="5.138"/>
			
				<rect x="2.981" y="139.021" fill="none" stroke="#3C3C3A" stroke-linecap="round" stroke-linejoin="round" stroke-miterlimit="10" width="30.265" height="5.137"/>
			
				<rect x="4.295" y="133.882" fill="none" stroke="#3C3C3A" stroke-linecap="round" stroke-linejoin="round" stroke-miterlimit="10" width="27.642" height="5.138"/>
			
				<rect x="6.262" y="130.029" fill="none" stroke="#3C3C3A" stroke-linecap="round" stroke-linejoin="round" stroke-miterlimit="10" width="23.707" height="3.853"/>
			
				<rect x="9.32" y="115.623" fill="none" stroke="#3C3C3A" stroke-linecap="round" stroke-linejoin="round" stroke-miterlimit="10" width="17.59" height="14.407"/>
			
				<rect x="8.174" y="112.216" fill="none" stroke="#3C3C3A" stroke-linecap="round" stroke-linejoin="round" stroke-miterlimit="10" width="19.883" height="3.407"/>
			
				<rect x="4.596" y="185.145" fill="none" stroke="#3C3C3A" stroke-linecap="round" stroke-linejoin="round" stroke-miterlimit="10" width="27.039" height="16.139"/>
			
				<rect x="2.981" y="243.831" fill="none" stroke="#3C3C3A" stroke-linecap="round" stroke-linejoin="round" stroke-miterlimit="10" width="30.265" height="5.138"/>
			
				<rect x="1.973" y="248.969" fill="none" stroke="#3C3C3A" stroke-linecap="round" stroke-linejoin="round" stroke-miterlimit="10" width="32.283" height="20.438"/>
			
				<line fill="none" stroke="#3C3C3A" stroke-linecap="round" stroke-linejoin="round" stroke-miterlimit="10" x1="26.91" y1="112.216" x2="18.115" y2="101.383"/>
			<polyline fill="none" stroke="#3C3C3A" stroke-linecap="round" stroke-linejoin="round" stroke-miterlimit="10" points="
				18.115,89.712 18.115,101.383 9.32,112.216 			"/>
			<g>
				
					<line fill="none" stroke="#3C3C3A" stroke-linecap="round" stroke-linejoin="round" stroke-miterlimit="10" x1="26.225" y1="198.378" x2="26.225" y2="187.545"/>
				
					<line fill="none" stroke="#3C3C3A" stroke-linecap="round" stroke-linejoin="round" stroke-miterlimit="10" x1="21.205" y1="198.378" x2="21.205" y2="187.545"/>
				
					<line fill="none" stroke="#3C3C3A" stroke-linecap="round" stroke-linejoin="round" stroke-miterlimit="10" x1="15.022" y1="198.378" x2="15.022" y2="187.545"/>
				
					<line fill="none" stroke="#3C3C3A" stroke-linecap="round" stroke-linejoin="round" stroke-miterlimit="10" x1="10.004" y1="198.378" x2="10.004" y2="187.545"/>
			</g>
			<g>
				
					<line fill="none" stroke="#3C3C3A" stroke-linecap="round" stroke-linejoin="round" stroke-miterlimit="10" x1="27.387" y1="137.178" x2="27.387" y2="135.725"/>
				
					<line fill="none" stroke="#3C3C3A" stroke-linecap="round" stroke-linejoin="round" stroke-miterlimit="10" x1="21.592" y1="137.178" x2="21.592" y2="135.725"/>
				
					<line fill="none" stroke="#3C3C3A" stroke-linecap="round" stroke-linejoin="round" stroke-miterlimit="10" x1="14.637" y1="137.178" x2="14.637" y2="135.725"/>
				
					<line fill="none" stroke="#3C3C3A" stroke-linecap="round" stroke-linejoin="round" stroke-miterlimit="10" x1="8.842" y1="137.178" x2="8.842" y2="135.725"/>
			</g>
			<g>
				
					<line fill="none" stroke="#3C3C3A" stroke-linecap="round" stroke-linejoin="round" stroke-miterlimit="10" x1="26.225" y1="219.904" x2="26.225" y2="209.07"/>
				
					<line fill="none" stroke="#3C3C3A" stroke-linecap="round" stroke-linejoin="round" stroke-miterlimit="10" x1="20.818" y1="219.904" x2="20.818" y2="209.07"/>
				
					<line fill="none" stroke="#3C3C3A" stroke-linecap="round" stroke-linejoin="round" stroke-miterlimit="10" x1="15.41" y1="219.904" x2="15.41" y2="209.07"/>
				
					<line fill="none" stroke="#3C3C3A" stroke-linecap="round" stroke-linejoin="round" stroke-miterlimit="10" x1="10.004" y1="219.904" x2="10.004" y2="209.07"/>
			</g>
			<g>
				
					<line fill="none" stroke="#3C3C3A" stroke-linecap="round" stroke-linejoin="round" stroke-miterlimit="10" x1="26.225" y1="241.432" x2="26.225" y2="230.598"/>
				
					<line fill="none" stroke="#3C3C3A" stroke-linecap="round" stroke-linejoin="round" stroke-miterlimit="10" x1="20.818" y1="241.432" x2="20.818" y2="230.598"/>
				
					<line fill="none" stroke="#3C3C3A" stroke-linecap="round" stroke-linejoin="round" stroke-miterlimit="10" x1="15.41" y1="241.432" x2="15.41" y2="230.598"/>
				
					<line fill="none" stroke="#3C3C3A" stroke-linecap="round" stroke-linejoin="round" stroke-miterlimit="10" x1="10.004" y1="241.432" x2="10.004" y2="230.598"/>
			</g>
		</g>
	</g>
	<g>
		<path fill="#F6F5F5" d="M563.558,185.504l2.323,2.372c-4.672,7.655-7.963,17.866-10.275,28.356l-9.106,9.311
			c-0.228,0.232-0.228,0.607,0,0.839l2.162,2.212l4.038,4.127c-2.117,15.342-2.497,28.543-2.561,31.68h-1.197
			c-0.797,0-1.445,0.664-1.445,1.478v2.644c0,0.815,0.648,1.479,1.445,1.479H621.1c0.797,0,1.446-0.664,1.446-1.479v-2.644
			c0-0.815-0.649-1.478-1.446-1.478H619.9c-0.073-3.696-0.591-21.362-3.865-40.037l4.14,4.23c0.108,0.111,0.255,0.174,0.41,0.174
			s0.302-0.063,0.411-0.174l2.164-2.212l7.232-7.394c0.109-0.111,0.17-0.264,0.17-0.42c0-0.157-0.061-0.309-0.17-0.42
			l-10.375-10.605c-0.001,0-0.001-0.001-0.001-0.001l-0.001-0.001l-10.435-10.667c0-0.001,0-0.001-0.001-0.002
			s-0.002-0.001-0.002-0.003l-1.67-1.708c-2.807-6.44-6.268-11.899-10.535-15.526l25.788-26.361c0.107-0.111,0.17-0.262,0.17-0.42
			c0-0.156-0.063-0.309-0.17-0.42l-2.164-2.209l-3.614-3.695c-0.001-0.002-0.001-0.002-0.002-0.004c-0.001,0-0.002,0-0.003-0.002
			l-3.613-3.693c-0.227-0.23-0.594-0.23-0.821,0l-27.466,28.078c-0.227,0.232-0.227,0.607,0,0.839l3.502,3.581
			c-1.269-0.282-2.584-0.444-3.959-0.444c-3.321,0-6.323,0.872-9.044,2.427l-26.495-27.086c-0.227-0.23-0.594-0.23-0.82,0
			l-2.162,2.211l-7.233,7.395c-0.227,0.232-0.227,0.607,0,0.839l13.854,14.163c0,0.001,0.001,0.001,0.001,0.002
			c0,0,0.001,0,0.002,0.001L563.558,185.504L563.558,185.504L563.558,185.504z"/>
		<g>
			<path fill="none" stroke="#3C3C3A" stroke-linecap="round" stroke-linejoin="round" stroke-miterlimit="10" d="M581.917,186.094
				c1.769-1.81,4.639-1.81,6.409,0c1.77,1.809,1.77,4.742,0,6.551c-1.771,1.812-4.641,1.812-6.409,0
				C580.146,190.836,580.146,187.902,581.917,186.094z"/>
			<polyline fill="none" stroke="#3C3C3A" stroke-linecap="round" stroke-linejoin="round" stroke-miterlimit="10" points="
				589.241,191.709 622.751,225.965 620.587,228.176 586.827,193.663 			"/>
			<polyline fill="none" stroke="#3C3C3A" stroke-linecap="round" stroke-linejoin="round" stroke-miterlimit="10" points="
				595.284,197.887 602.517,190.492 629.983,218.57 622.751,225.965 			"/>
			
				<line fill="none" stroke="#3C3C3A" stroke-linecap="round" stroke-linejoin="round" stroke-miterlimit="10" x1="626.367" y1="222.268" x2="598.9" y2="194.189"/>
			
				<line fill="none" stroke="#3C3C3A" stroke-linecap="round" stroke-linejoin="round" stroke-miterlimit="10" x1="598.458" y1="201.132" x2="605.689" y2="193.736"/>
			
				<line fill="none" stroke="#3C3C3A" stroke-linecap="round" stroke-linejoin="round" stroke-miterlimit="10" x1="601.937" y1="204.688" x2="609.17" y2="197.293"/>
			
				<line fill="none" stroke="#3C3C3A" stroke-linecap="round" stroke-linejoin="round" stroke-miterlimit="10" x1="605.416" y1="208.243" x2="612.648" y2="200.852"/>
			
				<line fill="none" stroke="#3C3C3A" stroke-linecap="round" stroke-linejoin="round" stroke-miterlimit="10" x1="608.895" y1="211.803" x2="616.128" y2="204.406"/>
			
				<line fill="none" stroke="#3C3C3A" stroke-linecap="round" stroke-linejoin="round" stroke-miterlimit="10" x1="612.375" y1="215.357" x2="619.607" y2="207.963"/>
			
				<line fill="none" stroke="#3C3C3A" stroke-linecap="round" stroke-linejoin="round" stroke-miterlimit="10" x1="615.854" y1="218.913" x2="623.086" y2="211.52"/>
			
				<line fill="none" stroke="#3C3C3A" stroke-linecap="round" stroke-linejoin="round" stroke-miterlimit="10" x1="619.333" y1="222.473" x2="626.564" y2="215.077"/>
			<polyline fill="none" stroke="#3C3C3A" stroke-linecap="round" stroke-linejoin="round" stroke-miterlimit="10" points="
				580.417,187.111 546.909,152.854 549.07,150.645 582.833,185.156 			"/>
			<polyline fill="none" stroke="#3C3C3A" stroke-linecap="round" stroke-linejoin="round" stroke-miterlimit="10" points="
				574.375,180.936 567.143,188.327 539.676,160.249 546.909,152.854 			"/>
			
				<line fill="none" stroke="#3C3C3A" stroke-linecap="round" stroke-linejoin="round" stroke-miterlimit="10" x1="543.292" y1="156.553" x2="570.759" y2="184.631"/>
			
				<line fill="none" stroke="#3C3C3A" stroke-linecap="round" stroke-linejoin="round" stroke-miterlimit="10" x1="571.201" y1="177.689" x2="563.968" y2="185.082"/>
			
				<line fill="none" stroke="#3C3C3A" stroke-linecap="round" stroke-linejoin="round" stroke-miterlimit="10" x1="567.723" y1="174.132" x2="560.489" y2="181.525"/>
			
				<line fill="none" stroke="#3C3C3A" stroke-linecap="round" stroke-linejoin="round" stroke-miterlimit="10" x1="564.244" y1="170.576" x2="557.011" y2="177.971"/>
			
				<line fill="none" stroke="#3C3C3A" stroke-linecap="round" stroke-linejoin="round" stroke-miterlimit="10" x1="560.764" y1="167.02" x2="553.531" y2="174.413"/>
			
				<line fill="none" stroke="#3C3C3A" stroke-linecap="round" stroke-linejoin="round" stroke-miterlimit="10" x1="557.285" y1="163.463" x2="550.052" y2="170.855"/>
			
				<line fill="none" stroke="#3C3C3A" stroke-linecap="round" stroke-linejoin="round" stroke-miterlimit="10" x1="553.806" y1="159.906" x2="546.573" y2="167.301"/>
			
				<line fill="none" stroke="#3C3C3A" stroke-linecap="round" stroke-linejoin="round" stroke-miterlimit="10" x1="550.327" y1="156.35" x2="543.095" y2="163.744"/>
			<path fill="none" stroke="#3C3C3A" stroke-linecap="round" stroke-linejoin="round" stroke-miterlimit="10" d="M581.917,186.094
				c1.769-1.81,4.639-1.81,6.409,0c1.77,1.809,1.77,4.742,0,6.551c-1.771,1.812-4.641,1.812-6.409,0
				C580.146,190.836,580.146,187.902,581.917,186.094z"/>
			<polyline fill="none" stroke="#3C3C3A" stroke-linecap="round" stroke-linejoin="round" stroke-miterlimit="10" points="
				587.079,184.898 620.587,150.645 622.751,152.854 588.99,187.369 			"/>
			<polyline fill="none" stroke="#3C3C3A" stroke-linecap="round" stroke-linejoin="round" stroke-miterlimit="10" points="
				593.122,178.723 585.888,171.329 613.354,143.251 620.587,150.645 			"/>
			
				<line fill="none" stroke="#3C3C3A" stroke-linecap="round" stroke-linejoin="round" stroke-miterlimit="10" x1="616.972" y1="146.947" x2="589.505" y2="175.025"/>
			
				<line fill="none" stroke="#3C3C3A" stroke-linecap="round" stroke-linejoin="round" stroke-miterlimit="10" x1="596.295" y1="175.479" x2="589.062" y2="168.084"/>
			
				<line fill="none" stroke="#3C3C3A" stroke-linecap="round" stroke-linejoin="round" stroke-miterlimit="10" x1="599.773" y1="171.922" x2="592.541" y2="164.527"/>
			
				<line fill="none" stroke="#3C3C3A" stroke-linecap="round" stroke-linejoin="round" stroke-miterlimit="10" x1="603.254" y1="168.363" x2="596.021" y2="160.971"/>
			
				<line fill="none" stroke="#3C3C3A" stroke-linecap="round" stroke-linejoin="round" stroke-miterlimit="10" x1="606.731" y1="164.809" x2="599.5" y2="157.414"/>
			
				<line fill="none" stroke="#3C3C3A" stroke-linecap="round" stroke-linejoin="round" stroke-miterlimit="10" x1="610.211" y1="161.252" x2="602.978" y2="153.857"/>
			
				<line fill="none" stroke="#3C3C3A" stroke-linecap="round" stroke-linejoin="round" stroke-miterlimit="10" x1="613.69" y1="157.695" x2="606.458" y2="150.303"/>
			
				<line fill="none" stroke="#3C3C3A" stroke-linecap="round" stroke-linejoin="round" stroke-miterlimit="10" x1="617.17" y1="154.139" x2="609.937" y2="146.744"/>
			<polyline fill="none" stroke="#3C3C3A" stroke-linecap="round" stroke-linejoin="round" stroke-miterlimit="10" points="
				582.581,193.921 549.07,228.176 546.909,225.965 580.67,191.453 			"/>
			<polyline fill="none" stroke="#3C3C3A" stroke-linecap="round" stroke-linejoin="round" stroke-miterlimit="10" points="
				576.539,200.098 583.771,207.492 556.304,235.568 549.07,228.176 			"/>
			
				<line fill="none" stroke="#3C3C3A" stroke-linecap="round" stroke-linejoin="round" stroke-miterlimit="10" x1="552.688" y1="231.873" x2="580.153" y2="203.795"/>
			
				<line fill="none" stroke="#3C3C3A" stroke-linecap="round" stroke-linejoin="round" stroke-miterlimit="10" x1="573.365" y1="203.342" x2="580.598" y2="210.736"/>
			
				<line fill="none" stroke="#3C3C3A" stroke-linecap="round" stroke-linejoin="round" stroke-miterlimit="10" x1="569.885" y1="206.898" x2="577.118" y2="214.292"/>
			
				<line fill="none" stroke="#3C3C3A" stroke-linecap="round" stroke-linejoin="round" stroke-miterlimit="10" x1="566.406" y1="210.456" x2="573.639" y2="217.85"/>
			
				<line fill="none" stroke="#3C3C3A" stroke-linecap="round" stroke-linejoin="round" stroke-miterlimit="10" x1="562.927" y1="214.012" x2="570.16" y2="221.406"/>
			
				<line fill="none" stroke="#3C3C3A" stroke-linecap="round" stroke-linejoin="round" stroke-miterlimit="10" x1="559.449" y1="217.568" x2="566.68" y2="224.962"/>
			
				<line fill="none" stroke="#3C3C3A" stroke-linecap="round" stroke-linejoin="round" stroke-miterlimit="10" x1="555.969" y1="221.125" x2="563.202" y2="228.52"/>
			
				<line fill="none" stroke="#3C3C3A" stroke-linecap="round" stroke-linejoin="round" stroke-miterlimit="10" x1="552.49" y1="224.682" x2="559.723" y2="232.075"/>
			<path fill="none" stroke="#3C3C3A" stroke-linecap="round" stroke-linejoin="round" stroke-miterlimit="10" d="M621.965,268.521
				v-2.644c0-0.489-0.386-0.884-0.865-0.884h-72.158c-0.477,0-0.864,0.395-0.864,0.884v2.644c0,0.49,0.387,0.885,0.864,0.885H621.1
				C621.579,269.406,621.965,269.012,621.965,268.521z"/>
			<path fill="none" stroke="#3C3C3A" stroke-linecap="round" stroke-linejoin="round" stroke-miterlimit="10" d="M594.799,264.995
				c0-11.261,0.899-25.899-9.778-25.899"/>
			<path fill="none" stroke="#3C3C3A" stroke-linecap="round" stroke-linejoin="round" stroke-miterlimit="10" d="M585.021,175.479
				c33.104,0,34.313,89.517,34.313,89.517"/>
			<path fill="none" stroke="#3C3C3A" stroke-linecap="round" stroke-linejoin="round" stroke-miterlimit="10" d="M575.242,264.995
				c0-11.261-0.898-25.899,9.778-25.899"/>
			<path fill="none" stroke="#3C3C3A" stroke-linecap="round" stroke-linejoin="round" stroke-miterlimit="10" d="M598.814,264.995
				c0-13.39,1.267-30.798-13.794-30.798"/>
			<path fill="none" stroke="#3C3C3A" stroke-linecap="round" stroke-linejoin="round" stroke-miterlimit="10" d="M571.227,264.995
				c0-13.39-1.266-30.798,13.794-30.798"/>
			<path fill="none" stroke="#3C3C3A" stroke-linecap="round" stroke-linejoin="round" stroke-miterlimit="10" d="M585.021,175.479
				c-33.103,0-34.312,89.517-34.312,89.517"/>
		</g>
	</g>
	<g>
		<path fill="#F6F5F5" d="M397.408,246.502c0.319,0,0.58-0.266,0.58-0.594v-6.826c0-0.328-0.261-0.596-0.58-0.596h-6.099v-8.457
			c0-0.328-0.26-0.594-0.58-0.594h-12.132c0.012-0.051,0.026-0.098,0.026-0.152l-0.414-45.096c0-0.008-0.004-0.016-0.004-0.021
			c0.879-0.641,1.457-1.063,1.625-1.186c0.164-0.119,0.256-0.318,0.242-0.523c-0.207-2.951-0.882-11.279-1.505-18.861
			c0.718-0.791,4.818-5.4,5.228-8.105c0.354-2.357,0.556-9.416,0.611-11.66c0.188-0.02,0.395-0.061,0.639-0.158
			c2.092-0.844,5.793-4.924,6-6.617c0.191-1.563-0.113-6.231-0.188-7.302l3.801-5.114c0.102-0.137,0.141-0.312,0.104-0.479
			c-0.032-0.168-0.137-0.312-0.282-0.397l-11.392-6.563c-0.248-0.144-0.563-0.081-0.742,0.151l-3.871,5.047
			c-0.918-1.195-10.627-15.461-10.727-15.606c-0.109-0.16-0.281-0.238-0.459-0.244c-0.189-1.412-1.213-2.758-2.895-3.708
			c-0.703-0.398-1.496-0.688-2.313-0.87c0.07-0.111,0.113-0.244,0.099-0.385l-1.998-17.935l3.989,1.717
			c0.074,0.031,0.15,0.046,0.226,0.046c0.227,0,0.44-0.136,0.535-0.363c0.125-0.302-0.015-0.65-0.31-0.777l-4.428-1.906
			c-0.052-0.022-0.105-0.026-0.16-0.033l-0.031-0.281c-0.002-0.026-0.016-0.046-0.021-0.071c0.141-0.052,0.283-0.105,0.424-0.188
			c0.74-0.439,1.432-1.341,1.307-2.367c-0.006-0.032-0.023-0.152-0.061-0.322c0.098,0.072,0.215,0.117,0.338,0.117
			c0.049,0,0.102-0.007,0.152-0.021l3.727-1.032c0.311-0.085,0.492-0.412,0.408-0.728c-0.082-0.315-0.396-0.506-0.711-0.417
			l-3.729,1.032c-0.186,0.051-0.315,0.192-0.381,0.363c-0.34-1.005-1.121-2.558-2.889-3.763c1.479-1.589,3.676-3.964,3.827-4.194
			c0.173-0.266,0.104-0.616-0.149-0.803c-0.252-0.186-0.608-0.127-0.806,0.126c-0.188,0.248-2.475,2.721-3.92,4.273
			c-1.411-0.693-3.309-1.144-5.817-1.114c0.043-0.085,0.074-0.177,0.071-0.28l-0.077-5.161c-0.004-0.328-0.25-0.567-0.591-0.584
			c-0.319,0.005-0.575,0.274-0.569,0.603l0.078,5.161c0,0.107,0.039,0.201,0.086,0.287c-2.545,0.174-4.522,1.13-6.021,2.334
			c-0.021-0.092-0.059-0.179-0.127-0.254l-3.572-3.969c-0.217-0.241-0.582-0.256-0.819-0.035c-0.235,0.222-0.252,0.597-0.035,0.838
			l3.574,3.97c0.057,0.063,0.123,0.11,0.194,0.142c-1.09,1.057-1.856,2.21-2.338,3.161c-0.071-0.103-0.17-0.187-0.299-0.225
			l-4.271-1.27c-0.313-0.095-0.63,0.089-0.72,0.404s0.09,0.644,0.396,0.736l4.271,1.27c0.055,0.016,0.108,0.024,0.162,0.024
			c0.021,0,0.036-0.018,0.059-0.021c-0.061,0.167-0.115,0.324-0.15,0.458c-0.311,1.141,0.359,2.167,1.113,2.637
			c0.26,0.162,0.527,0.244,0.793,0.287l-1.285,9.598c-0.637-0.71-1.064-1.247-1.273-1.521c0.269-1.953-2.219-7.177-3.808-8.745
			c-0.606-0.599-1.104-0.734-1.476-0.698c-1.147-7.488-3.542-30.203-3.567-30.442c-0.005-0.057-0.02-0.114-0.042-0.166l-1.863-4.525
			c-0.106-0.26-0.371-0.388-0.633-0.344l0.134-4.171c0.002-0.081-0.012-0.158-0.038-0.229c0.005-0.007,0.014-0.009,0.018-0.017
			l4.194-6.431c0.031-0.046,0.043-0.098,0.06-0.148c0.281-0.04,0.502-0.278,0.502-0.578v-4.448c0-0.163-0.065-0.318-0.18-0.43
			c-0.117-0.113-0.278-0.177-0.43-0.163l-1.118,0.059c0.17-0.097,0.293-0.275,0.304-0.487c0.736-15.161-4.558-17.905-4.784-18.014
			c-0.148-0.073-0.322-0.077-0.476-0.009c-0.153,0.067-0.271,0.198-0.323,0.359c-0.011,0.034-1.146,3.464-4.224,6.853
			c-3.132,3.447-3.614,10.87-3.669,11.988l-0.854,0.045c-0.309,0.016-0.551,0.277-0.551,0.593v3.652c0,0.329,0.26,0.593,0.581,0.593
			h0.375l2.901,6.481c0.068,0.152,0.203,0.243,0.354,0.294c-0.007,0.044-0.021,0.088-0.017,0.135l1.009,14.609
			c0.01,0.146,0.075,0.274,0.169,0.372c-0.059,0.101-0.099,0.214-0.091,0.34l2.484,38.268c0.005,0.073,0.025,0.141,0.053,0.204
			l-2.054,3.159c-0.109,0.168-0.128,0.381-0.049,0.566l3.49,8.185c0.11,0.755,1.329,9.192,1.329,13.067
			c0,3.952-0.387,13.86-0.413,14.521c-0.101,0.086-0.207,0.182-0.304,0.262c-0.143,0.117-0.222,0.295-0.217,0.48
			c0.034,1.057,0.834,25.902,1.255,28.043c0.053,0.271,0.34,0.529,0.61,0.537c0.008,0,0.018,0,0.026,0
			c0.169,0,0.516-0.092,2.004-1.918c-0.131,5.324-0.551,22.908-0.375,26.252c-0.001,5.42-1.843,25.986-1.862,26.193
			c-0.019,0.205,0.068,0.404,0.229,0.527c0.102,0.08,0.224,0.121,0.349,0.121c0.07,0,0.142-0.016,0.21-0.041
			c0.358-0.143,0.762-0.322,1.188-0.523L329,229.42c-0.001,0.006,0.001,0.01,0.001,0.014h-17.649c-0.321,0-0.581,0.266-0.581,0.594
			v8.457h-6.099c-0.32,0-0.581,0.268-0.581,0.596v6.826c0,0.328,0.261,0.594,0.581,0.594h6.099v14.533h-6.099
			c-0.32,0-0.581,0.266-0.581,0.594v7.779c0,0.328,0.261,0.594,0.581,0.594h92.73c0.319,0,0.58-0.266,0.58-0.594v-7.779
			c0-0.328-0.261-0.594-0.58-0.594h-6.099v-14.531H397.408z"/>
		<g>
			
				<rect x="304.678" y="261.629" fill="none" stroke="#3C3C3A" stroke-linecap="round" stroke-linejoin="round" stroke-miterlimit="10" width="92.73" height="7.779"/>
			
				<rect x="304.678" y="239.08" fill="none" stroke="#3C3C3A" stroke-linecap="round" stroke-linejoin="round" stroke-miterlimit="10" width="92.73" height="6.828"/>
			
				<rect x="311.357" y="245.908" fill="none" stroke="#3C3C3A" stroke-linecap="round" stroke-linejoin="round" stroke-miterlimit="10" width="79.374" height="15.721"/>
			
				<rect x="311.357" y="230.029" fill="none" stroke="#3C3C3A" stroke-linecap="round" stroke-linejoin="round" stroke-miterlimit="10" width="79.374" height="9.051"/>
			<path fill="none" stroke="#3C3C3A" stroke-linecap="round" stroke-linejoin="round" stroke-miterlimit="10" d="M390.264,129.57
				c-1.655-2.118-5.799,1.27-7.662,4.022c-1.864,2.751,0,8.468,1.242,9.529c1.242,1.059,6.42-4.447,6.627-6.143
				C390.678,135.288,390.264,129.57,390.264,129.57z"/>
			<polyline fill="none" stroke="#3C3C3A" stroke-linecap="round" stroke-linejoin="round" stroke-miterlimit="10" points="
				390.264,129.57 394.199,124.277 382.807,117.714 366.238,139.311 376.803,149.26 382.807,141.426 			"/>
			<path fill="none" stroke="#3C3C3A" stroke-linecap="round" stroke-linejoin="round" stroke-miterlimit="10" d="M356.92,103.741
				c0,0-20.503,25.617-29.201,32.815c0,0,0.828,25.83,1.243,27.947c0.414,2.117,36.656-52.717,37.693-56.74
				C367.689,103.741,360.027,100.354,356.92,103.741z"/>
			<path fill="none" stroke="#3C3C3A" stroke-linecap="round" stroke-linejoin="round" stroke-miterlimit="10" d="M331.653,161.752
				c0,0-0.621,23.924-0.414,27.734c0.206,3.811,33.963-42.979,36.036-48.061"/>
			<path fill="none" stroke="#3C3C3A" stroke-linecap="round" stroke-linejoin="round" stroke-miterlimit="10" d="M367.275,107.128
				c0,0,9.94,14.609,10.77,15.667"/>
			<path fill="none" stroke="#3C3C3A" stroke-linecap="round" stroke-linejoin="round" stroke-miterlimit="10" d="M376.803,149.26
				c0,0,2.277,27.311,2.691,33.24c0,0-39.971,29.217-50.119,33.238c0,0,1.864-20.748,1.864-26.252"/>
			
				<line fill="none" stroke="#3C3C3A" stroke-linecap="round" stroke-linejoin="round" stroke-miterlimit="10" x1="331.446" y1="215.104" x2="329.582" y2="229.5"/>
			
				<line fill="none" stroke="#3C3C3A" stroke-linecap="round" stroke-linejoin="round" stroke-miterlimit="10" x1="377.631" y1="184.191" x2="378.045" y2="229.289"/>
			<path fill="none" stroke="#3C3C3A" stroke-linecap="round" stroke-linejoin="round" stroke-miterlimit="10" d="M383.844,143.121
				c0,0-0.207,9.525-0.621,12.277c-0.416,2.754-5.178,7.9-5.178,7.9"/>
			<path fill="none" stroke="#3C3C3A" stroke-linecap="round" stroke-linejoin="round" stroke-miterlimit="10" d="M334.863,82.78
				l-11.08,17.043l3.521,8.257c0,0,11.701-15.244,12.426-16.409C340.455,90.508,336.52,81.616,334.863,82.78z"/>
			<path fill="none" stroke="#3C3C3A" stroke-linecap="round" stroke-linejoin="round" stroke-miterlimit="10" d="M339.73,91.672
				c0,0,7.455,10.48,18.742,11.01"/>
			<path fill="none" stroke="#3C3C3A" stroke-linecap="round" stroke-linejoin="round" stroke-miterlimit="10" d="M327.304,108.082
				c0,0,1.348,9.104,1.348,13.232s-0.415,14.608-0.415,14.608"/>
			<path fill="none" stroke="#3C3C3A" stroke-linecap="round" stroke-linejoin="round" stroke-miterlimit="10" d="M350.889,73.544
				c-6.281,0.348-8.932,5.716-9.32,7.146s1.398,2.859,2.408,1.906c1.01-0.953,3.961-3.89,7.611-3.89c3.648,0,6.135,1.905,7.066,2.62
				c0.931,0.715,2.641-0.556,2.486-1.827C360.984,78.229,359.508,73.068,350.889,73.544z"/>
			
				<line fill="none" stroke="#3C3C3A" stroke-linecap="round" stroke-linejoin="round" stroke-miterlimit="10" x1="343.51" y1="83.391" x2="342.043" y2="94.366"/>
			
				<line fill="none" stroke="#3C3C3A" stroke-linecap="round" stroke-linejoin="round" stroke-miterlimit="10" x1="359.432" y1="82.12" x2="361.605" y2="101.65"/>
			<path fill="none" stroke="#3C3C3A" stroke-linecap="round" stroke-linejoin="round" stroke-miterlimit="10" d="M346.229,91.25
				c0,0,1.32,6.035,6.523,4.685c5.203-1.35,3.961-9.289,3.961-9.289"/>
			<path fill="none" stroke="#3C3C3A" stroke-linecap="round" stroke-linejoin="round" stroke-miterlimit="10" d="M341.102,79.5"/>
			
				<line fill="none" stroke="#3C3C3A" stroke-linecap="round" stroke-linejoin="round" stroke-miterlimit="10" x1="341.102" y1="79.5" x2="336.831" y2="78.229"/>
			
				<line fill="none" stroke="#3C3C3A" stroke-linecap="round" stroke-linejoin="round" stroke-miterlimit="10" x1="344.131" y1="75.45" x2="340.559" y2="71.48"/>
			
				<line fill="none" stroke="#3C3C3A" stroke-linecap="round" stroke-linejoin="round" stroke-miterlimit="10" x1="351.199" y1="72.671" x2="351.121" y2="67.51"/>
			<path fill="none" stroke="#3C3C3A" stroke-linecap="round" stroke-linejoin="round" stroke-miterlimit="10" d="M357.877,74.541
				c0,0,3.885-4.17,4.039-4.409"/>
			
				<line fill="none" stroke="#3C3C3A" stroke-linecap="round" stroke-linejoin="round" stroke-miterlimit="10" x1="361.994" y1="78.626" x2="365.723" y2="77.593"/>
			
				<line fill="none" stroke="#3C3C3A" stroke-linecap="round" stroke-linejoin="round" stroke-miterlimit="10" x1="359.975" y1="82.914" x2="364.4" y2="84.818"/>
			<polygon fill="none" stroke="#3C3C3A" stroke-linecap="round" stroke-linejoin="round" stroke-miterlimit="10" points="
				318.114,31.386 318.114,35.039 333.259,35.039 333.259,30.592 			"/>
			<polyline fill="none" stroke="#3C3C3A" stroke-linecap="round" stroke-linejoin="round" stroke-miterlimit="10" points="
				318.969,35.276 321.919,41.866 328.6,41.866 332.792,35.437 			"/>
			<polyline fill="none" stroke="#3C3C3A" stroke-linecap="round" stroke-linejoin="round" stroke-miterlimit="10" points="
				322.309,42.502 323.317,57.11 328.056,57.11 328.521,42.422 			"/>
			<path fill="none" stroke="#3C3C3A" stroke-linecap="round" stroke-linejoin="round" stroke-miterlimit="10" d="M329.065,47.187
				l1.864,4.526c0,0,2.64,25.088,3.727,31.44"/>
			
				<line fill="none" stroke="#3C3C3A" stroke-linecap="round" stroke-linejoin="round" stroke-miterlimit="10" x1="323.396" y1="57.825" x2="325.881" y2="96.092"/>
			<path fill="none" stroke="#3C3C3A" stroke-linecap="round" stroke-linejoin="round" stroke-miterlimit="10" d="M319.512,30.911
				c0,0,0.312-8.211,3.521-11.746c3.21-3.535,4.35-7.07,4.35-7.07s5.178,2.509,4.453,17.448"/>
		</g>
	</g>
</g>
</svg>
