<?xml version="1.0" encoding="utf-8"?>
<!-- Generator: Adobe Illustrator 16.0.0, SVG Export Plug-In . SVG Version: 6.00 Build 0)  -->
<!DOCTYPE svg PUBLIC "-//W3C//DTD SVG 1.1//EN" "http://www.w3.org/Graphics/SVG/1.1/DTD/svg11.dtd">
<svg version="1.1" id="Layer_1" xmlns="http://www.w3.org/2000/svg" xmlns:xlink="http://www.w3.org/1999/xlink" x="0px" y="0px"
	 width="134px" height="32px" viewBox="0 0 134 32" enable-background="new 0 0 134 32" xml:space="preserve">
<g>
	<g>
		<path fill="#1C191A" d="M34,26.023V0h6.179v26.023H34z"/>
		<path fill="#1C191A" d="M43.614,0h6.456v5.563h-6.456V0z M43.753,26.023V8.501h6.178v17.522H43.753z"/>
		<path fill="#1C191A" d="M55.832,25.506c-1.388-0.346-2.557-0.852-3.506-1.521l1.562-4.18c0.925,0.598,1.979,1.076,3.159,1.434
			s2.314,0.535,3.401,0.535c0.671,0,1.191-0.098,1.562-0.293c0.37-0.195,0.556-0.467,0.556-0.813c0-0.299-0.134-0.529-0.399-0.691
			c-0.266-0.16-0.804-0.334-1.614-0.518l-2.743-0.623c-1.735-0.391-2.985-0.967-3.748-1.729c-0.765-0.76-1.146-1.842-1.146-3.248
			c0-1.083,0.324-2.044,0.972-2.886c0.647-0.84,1.556-1.492,2.725-1.952c1.168-0.461,2.493-0.691,3.974-0.691
			c1.227,0,2.448,0.178,3.663,0.536c1.214,0.357,2.319,0.858,3.315,1.503l-1.597,4.009c-0.926-0.576-1.856-1.019-2.794-1.331
			c-0.938-0.311-1.822-0.466-2.655-0.466c-0.671,0-1.192,0.104-1.563,0.311s-0.555,0.507-0.555,0.898c0,0.23,0.115,0.421,0.347,0.57
			c0.231,0.15,0.636,0.293,1.214,0.432l2.881,0.657c1.805,0.392,3.112,0.997,3.922,1.814c0.81,0.818,1.215,1.93,1.215,3.336
			c0,1.682-0.677,3.006-2.031,3.973c-1.354,0.969-3.21,1.451-5.57,1.451C58.736,26.023,57.221,25.852,55.832,25.506z"/>
		<path fill="#1C191A" d="M82.322,21.496l-0.313,4.391c-0.741,0.092-1.459,0.137-2.152,0.137c-2.776,0-4.796-0.58-6.057-1.744
			c-1.262-1.164-1.893-2.967-1.893-5.408v-5.599h-3.193V8.745h3.193V3.804h6.18v4.941h4.096v4.527h-4.096v5.634
			c0,1.797,0.844,2.695,2.533,2.695C81.129,21.602,81.697,21.566,82.322,21.496z"/>
		<path fill="#1C191A" d="M84.26,0h6.456v5.563H84.26V0z M84.315,26.023l0.083-17.522h6.179l-0.083,17.522H84.315z"/>
		<path fill="#1C191A" d="M112.375,8.501V23.43c0,2.811-0.839,4.941-2.516,6.393c-1.68,1.453-4.16,2.178-7.445,2.178
			c-1.551,0-3.055-0.178-4.514-0.535c-1.457-0.357-2.719-0.859-3.783-1.504l1.563-4.182c1.063,0.553,2.17,0.979,3.314,1.279
			c1.146,0.299,2.228,0.449,3.245,0.449c1.365,0,2.378-0.293,3.038-0.881s0.989-1.516,0.989-2.783v-1.313
			c-0.511,0.76-1.239,1.365-2.187,1.814c-0.949,0.449-1.979,0.674-3.09,0.674c-1.481,0-2.801-0.346-3.957-1.037
			c-1.157-0.691-2.061-1.676-2.708-2.955c-0.647-1.277-0.972-2.758-0.972-4.44c0-1.681,0.324-3.167,0.972-4.458
			c0.647-1.29,1.551-2.286,2.708-2.989c1.156-0.702,2.476-1.054,3.957-1.054c1.133,0,2.175,0.23,3.123,0.691
			c0.949,0.46,1.679,1.094,2.188,1.9V8.501H112.375z M105.398,19.404c0.602-0.68,0.902-1.619,0.902-2.817
			c0-1.221-0.301-2.177-0.902-2.868c-0.604-0.691-1.445-1.037-2.533-1.037c-1.065,0-1.898,0.34-2.5,1.019
			c-0.602,0.68-0.902,1.642-0.902,2.886c0,1.198,0.307,2.137,0.92,2.817s1.44,1.02,2.482,1.02
			C103.953,20.424,104.795,20.084,105.398,19.404z"/>
		<path fill="#1C191A" d="M119.646,24.936c-1.424-0.727-2.522-1.756-3.297-3.094c-0.776-1.334-1.164-2.902-1.164-4.699
			s0.388-3.357,1.164-4.682c0.774-1.325,1.867-2.344,3.28-3.059c1.41-0.714,3.065-1.071,4.962-1.071
			c1.898,0,3.553,0.357,4.965,1.071c1.412,0.714,2.504,1.734,3.279,3.059c0.776,1.325,1.164,2.885,1.164,4.682
			s-0.388,3.365-1.164,4.699c-0.775,1.338-1.867,2.367-3.279,3.094s-3.066,1.088-4.965,1.088
			C122.718,26.023,121.07,25.662,119.646,24.936z M127.891,17.143c0-2.856-1.1-4.285-3.299-4.285c-2.197,0-3.297,1.429-3.297,4.285
			c0,2.857,1.1,4.285,3.297,4.285C126.791,21.428,127.891,20,127.891,17.143z"/>
	</g>
	<path fill="#EB354E" d="M0,0v26h26V0H0z M19.407,19.408H6.591L19.407,6.591V19.408z"/>
</g>
</svg>
